<?xml version="1.0" standalone="no"?>
<!DOCTYPE svg PUBLIC "-//W3C//DTD SVG 20010904//EN"
 "http://www.w3.org/TR/2001/REC-SVG-20010904/DTD/svg10.dtd">
<svg version="1.0" xmlns="http://www.w3.org/2000/svg"
 width="534.000000pt" height="534.000000pt" viewBox="0 0 534.000000 534.000000"
 preserveAspectRatio="xMidYMid meet">
<metadata>
Created by potrace 1.11, written by Peter Selinger 2001-2013
</metadata>
<g transform="translate(0.000000,534.000000) scale(0.100000,-0.100000)"
fill="#000000" stroke="none">
<path d="M104 5098 c-4 -6 -3 -8 4 -4 5 3 13 0 15 -6 3 -8 6 -6 6 5 1 19 -14
23 -25 5z"/>
<path d="M190 5101 c0 -6 4 -13 10 -16 6 -3 7 1 4 9 -7 18 -14 21 -14 7z"/>
<path d="M139 5083 c-5 -30 -3 -36 14 -39 10 -1 14 2 11 8 -5 7 -2 8 6 3 9 -5
11 -4 6 3 -4 7 -2 12 3 12 6 0 11 -7 11 -16 0 -10 5 -12 13 -7 19 12 45 14 52
3 3 -5 0 -7 -8 -4 -8 3 -18 1 -21 -5 -4 -5 9 -8 31 -7 47 3 57 -2 42 -20 -7
-9 -8 -14 -1 -14 6 0 14 5 17 10 4 6 11 7 17 4 7 -4 8 -2 4 4 -4 7 -2 12 4 12
6 0 8 -11 6 -25 -4 -22 -2 -24 15 -15 17 10 18 8 9 -14 -5 -13 -6 -27 -2 -31
3 -3 -2 -3 -13 1 -11 5 -14 9 -7 12 7 2 12 8 12 13 0 6 -4 7 -10 4 -5 -3 -19
-1 -31 6 -17 9 -23 8 -30 -2 -7 -11 -9 -11 -9 1 0 13 -1 13 -11 0 -8 -11 -9
-9 -3 10 6 21 5 23 -7 13 -8 -7 -24 -10 -34 -8 -11 2 -23 4 -27 4 -4 1 -5 9
-1 19 6 15 3 15 -18 -3 l-24 -20 19 23 c11 12 14 22 8 22 -6 0 -18 -10 -28
-22 -10 -15 -14 -17 -11 -6 5 14 0 17 -28 14 -20 -1 -31 2 -28 7 4 6 -3 8 -15
5 -12 -3 -23 -1 -26 6 -3 8 -7 8 -13 -1 -11 -15 -11 -3979 0 -3975 4 1 15 -4
23 -13 9 -8 20 -13 25 -10 5 4 9 1 9 -5 0 -7 7 -10 15 -6 8 3 15 1 15 -5 0 -6
4 -8 9 -4 5 3 13 0 16 -6 4 -5 13 -8 20 -5 7 2 16 -2 19 -10 3 -8 19 -14 36
-14 16 0 30 -4 30 -10 0 -5 9 -10 20 -10 11 0 20 -5 20 -11 0 -6 7 -8 16 -5 8
3 22 -1 30 -9 13 -13 42 -20 66 -16 5 0 8 -2 8 -7 0 -4 15 -13 33 -20 17 -7
45 -19 60 -27 20 -10 26 -11 21 -2 -6 9 -4 9 8 0 8 -7 18 -10 21 -6 4 3 7 1 7
-5 0 -6 7 -9 17 -5 10 4 14 2 10 -4 -4 -6 0 -14 9 -17 9 -3 12 -2 8 5 -7 12
38 -11 47 -25 4 -5 12 -5 18 -2 6 4 11 2 11 -4 0 -6 4 -9 9 -5 5 3 13 0 16 -6
4 -5 13 -8 21 -5 8 3 14 1 14 -5 0 -6 4 -8 9 -5 5 3 14 -1 21 -9 7 -8 16 -12
21 -9 5 2 20 -3 34 -12 14 -9 25 -13 25 -10 0 4 11 -1 25 -10 13 -8 29 -13 35
-9 5 3 10 1 10 -5 0 -7 6 -10 14 -7 8 3 16 1 18 -5 2 -6 15 -13 28 -15 13 -2
27 -8 30 -14 4 -5 14 -7 23 -3 9 3 17 1 17 -5 0 -9 76 -37 93 -33 4 1 7 -3 7
-9 0 -6 7 -9 15 -5 8 3 15 2 15 -3 0 -9 48 -26 63 -23 4 1 7 -3 7 -9 0 -6 7
-8 16 -5 9 4 13 2 8 -5 -4 -7 1 -9 12 -7 11 2 25 -3 32 -12 8 -8 11 -10 8 -3
-4 6 15 1 41 -12 25 -13 50 -22 55 -19 4 3 8 1 8 -4 0 -9 55 -26 73 -23 4 0 7
-4 7 -9 0 -5 3 -9 7 -8 5 1 18 -3 31 -10 12 -7 22 -9 22 -5 0 4 5 2 12 -5 7
-7 20 -12 30 -12 10 0 18 -4 18 -10 0 -5 14 -10 30 -10 17 0 30 -4 30 -10 0
-5 9 -10 20 -10 11 0 20 -4 20 -9 0 -5 12 -8 28 -7 28 3 27 0 31 92 0 18 8 34
16 38 12 4 14 0 11 -19 -3 -14 0 -27 5 -31 5 -3 8 0 7 8 -2 7 2 12 8 11 6 -1
11 4 11 12 0 8 -4 12 -9 9 -5 -4 -8 0 -7 7 3 21 -12 50 -22 43 -5 -3 -9 -10
-9 -15 0 -6 5 -7 12 -3 7 4 8 3 4 -4 -14 -23 -25 -12 -23 22 1 22 6 31 12 26
6 -5 13 -8 17 -7 3 1 10 -2 15 -7 5 -5 2 -6 -6 -1 -9 5 -12 4 -7 -3 10 -17 29
-15 22 3 -3 8 2 19 12 24 9 6 12 11 6 11 -5 0 -15 -5 -22 -12 -9 -9 -12 -9
-12 0 0 7 -3 11 -7 11 -19 -3 -36 2 -30 8 4 3 2 12 -5 20 -6 8 -7 13 -2 12 21
-4 28 2 14 11 -13 8 -12 10 4 10 15 0 16 3 6 15 -6 8 -9 18 -6 24 3 5 0 12 -6
14 -8 3 -6 6 5 6 21 1 23 21 2 21 -17 0 -19 9 -5 30 6 9 5 17 -3 22 -8 5 -6 8
6 8 9 0 17 5 17 10 0 6 -6 10 -14 10 -9 0 -13 10 -12 29 0 22 4 27 13 19 7 -5
17 -7 22 -3 7 3 8 0 5 -9 -3 -9 -10 -14 -14 -11 -5 3 -12 0 -16 -6 -4 -8 -3
-9 4 -5 7 4 12 3 12 -3 0 -5 9 -9 19 -8 14 1 17 5 10 13 -5 6 -6 20 -2 29 5
14 3 17 -10 12 -29 -11 -31 15 -4 38 23 18 24 21 8 21 -11 0 -18 -3 -15 -7 7
-12 -22 -18 -37 -7 -11 8 -11 9 3 4 11 -3 19 2 23 14 4 11 12 17 21 13 7 -3
14 0 14 7 0 6 -5 8 -10 5 -5 -3 -10 -1 -10 6 0 8 -4 8 -15 -1 -8 -7 -12 -16
-9 -21 3 -5 0 -9 -5 -9 -6 0 -9 10 -7 22 2 17 10 22 34 23 17 0 35 5 39 9 4 5
-1 6 -12 2 -11 -3 -27 -1 -35 4 -9 6 -20 5 -30 -3 -13 -10 -13 -10 -3 4 10 12
10 18 0 28 -6 7 -7 12 -2 11 22 -5 29 1 15 10 -13 8 -12 10 4 10 15 0 16 3 6
15 -7 8 -17 12 -23 8 -6 -3 -7 -1 -3 6 4 6 12 9 17 6 16 -11 10 7 -8 20 -13 9
-13 14 -3 20 8 5 11 4 7 -2 -4 -6 0 -13 8 -16 9 -4 12 -1 8 9 -3 7 -1 14 5 14
5 0 8 -10 8 -23 -1 -12 3 -28 8 -36 9 -12 8 -13 -4 -6 -8 4 -12 5 -8 0 4 -4 3
-15 -1 -24 -11 -19 13 -59 24 -42 3 6 1 11 -5 11 -6 0 -8 5 -5 10 5 8 12 7 23
-2 15 -12 16 -11 3 5 -7 9 -10 17 -7 17 4 0 2 10 -5 22 -9 17 -9 20 3 15 8 -3
15 1 15 8 0 7 -6 11 -14 8 -7 -3 -13 0 -13 6 0 6 5 11 10 11 6 0 10 5 10 11 0
5 -4 8 -9 4 -5 -3 -12 -1 -15 4 -4 5 2 12 11 14 17 4 17 5 1 6 -10 0 -18 6
-18 12 0 5 6 7 13 3 9 -5 9 -4 0 6 -10 11 -9 17 3 32 15 16 15 18 0 24 -9 3
-13 10 -10 16 3 5 11 5 19 -2 10 -8 15 -8 21 1 4 7 3 9 -3 6 -5 -3 -17 3 -26
14 -20 23 -22 33 -4 23 8 -5 8 -2 -2 9 -16 20 -2 23 19 4 8 -6 7 -3 -3 9 -13
16 -14 23 -4 33 9 10 9 12 -2 9 -7 -2 -16 3 -19 11 -3 8 0 11 7 7 6 -4 11 -2
11 3 0 12 -1 12 -38 16 -12 1 -26 6 -30 10 -4 5 1 5 10 2 9 -3 19 -1 21 6 3 9
8 9 19 -1 11 -9 18 -10 23 -2 4 6 3 10 -2 9 -21 -4 -24 3 -6 19 10 9 14 14 9
10 -13 -10 -26 -10 -26 0 0 5 10 14 23 21 18 9 19 10 2 6 -16 -4 -20 1 -21 19
-1 14 3 23 10 22 6 -2 8 -1 4 1 -3 2 -5 16 -2 31 4 25 3 26 -8 7 -7 -11 -13
-23 -13 -27 0 -5 -3 -8 -7 -8 -31 0 -32 1 -18 10 13 9 13 10 0 10 -13 0 -13 1
0 10 13 9 13 10 0 10 -12 1 -11 3 3 11 9 5 17 15 17 21 0 7 -6 6 -15 -2 -9 -7
-18 -10 -22 -6 -3 3 -1 6 6 6 7 0 9 5 5 12 -4 7 -4 10 1 6 4 -4 14 -3 21 3 8
7 14 6 20 -2 5 -8 3 -9 -6 -4 -9 5 -11 4 -6 -4 4 -6 12 -9 17 -6 5 4 9 1 9 -6
0 -7 3 -9 6 -6 4 4 1 13 -6 22 -11 14 -7 19 13 16 4 0 7 4 7 9 0 14 -13 13
-28 -2 -9 -9 -12 -9 -12 -1 0 7 4 14 9 18 6 3 9 14 8 25 -1 10 -5 16 -9 14 -4
-3 -8 0 -8 5 0 6 7 11 15 11 8 0 15 4 15 10 0 5 -8 6 -17 3 -16 -6 -16 -5 -4
10 15 18 9 33 -8 23 -5 -4 -8 -15 -6 -26 2 -11 -1 -20 -7 -20 -7 0 -7 -4 0
-13 18 -21 3 -67 -21 -67 -7 0 -6 4 3 10 13 8 13 10 1 10 -11 0 -9 4 5 15 12
10 14 14 4 12 -8 -2 -12 -2 -7 0 4 3 7 9 7 14 0 6 -6 7 -12 3 -7 -4 -10 -4 -6
1 4 4 3 14 -4 22 -6 8 -7 13 -2 12 21 -4 35 2 29 11 -4 6 -10 8 -15 5 -10 -6
-8 15 3 33 5 7 13 10 18 6 5 -3 6 -10 3 -16 -4 -6 0 -6 13 1 11 6 24 7 29 3 5
-4 -1 5 -13 19 -26 29 -31 48 -7 29 12 -11 15 -11 12 1 -2 9 4 13 17 11 16 -2
17 -1 5 7 -8 5 -19 6 -25 2 -5 -5 -18 -7 -27 -6 -9 2 -15 -2 -12 -8 5 -16 -13
-43 -23 -34 -4 5 -1 12 7 18 13 8 13 10 0 19 -10 6 -11 10 -2 10 6 0 12 5 12
11 0 5 -6 7 -12 3 -7 -4 -10 -4 -6 1 4 4 3 14 -4 22 -6 8 -7 13 -2 12 21 -4
35 2 29 11 -4 6 -10 8 -14 6 -4 -3 -8 5 -8 17 -2 15 0 18 6 8 6 -8 11 -9 15
-3 4 6 -2 15 -11 21 -10 6 -14 11 -10 11 4 0 3 9 -3 20 -8 15 -8 18 3 15 8 -4
13 3 14 16 2 18 0 19 -15 7 -15 -11 -15 -11 -5 3 7 9 9 19 5 24 -4 4 2 2 14
-5 22 -13 28 -41 11 -51 -5 -4 -5 -9 2 -13 6 -4 11 -2 11 5 0 9 3 9 14 0 11
-9 16 -9 22 0 4 7 3 9 -3 6 -6 -4 -14 1 -18 11 -12 27 -14 42 -5 42 4 0 11 7
14 16 5 14 4 15 -9 4 -20 -17 -19 -1 2 22 16 17 16 20 0 35 -13 13 -17 14 -17
3 0 -7 -2 -11 -5 -8 -3 3 -3 13 1 22 5 14 9 14 22 4 12 -10 14 -10 8 0 -4 6
-2 12 3 12 6 0 11 -6 11 -12 0 -8 3 -9 8 -3 6 9 28 11 42 5 3 -1 16 -4 30 -6
44 -7 55 -9 69 -18 10 -7 12 -6 6 4 -6 9 -4 11 6 5 14 -9 30 -13 79 -18 14 -2
30 -6 36 -9 5 -4 22 -5 37 -4 15 2 24 -1 20 -7 -3 -5 0 -7 8 -5 8 3 22 1 32
-4 12 -6 17 -5 17 4 0 10 2 10 9 -1 5 -7 13 -11 19 -7 6 3 13 2 17 -4 3 -6 17
-8 30 -6 14 3 27 0 30 -5 3 -5 16 -7 27 -5 21 3 56 -23 61 -47 1 -6 10 -19 19
-28 10 -9 15 -19 11 -23 -3 -3 1 -6 11 -6 9 0 15 -4 12 -9 -3 -5 6 -21 19 -37
40 -45 45 -53 45 -62 0 -5 9 -17 20 -27 11 -10 17 -22 13 -28 -3 -5 -1 -7 4
-4 10 7 28 -20 25 -35 -1 -5 2 -8 7 -8 4 0 27 -28 51 -62 24 -35 55 -76 69
-92 14 -16 19 -25 11 -21 -8 4 0 -6 19 -24 19 -17 30 -31 25 -31 -5 0 -1 -7 9
-14 10 -8 18 -17 18 -20 -3 -20 0 -26 9 -21 6 3 10 -1 10 -9 0 -9 9 -21 19
-28 10 -6 17 -18 14 -25 -3 -8 0 -13 8 -11 9 2 13 -4 11 -16 -2 -11 1 -15 7
-11 6 3 11 -1 11 -10 0 -10 5 -13 12 -9 6 4 8 3 5 -3 -3 -5 5 -22 19 -38 13
-15 24 -32 24 -38 0 -5 15 -23 32 -40 18 -17 26 -27 18 -22 -16 9 12 -27 45
-58 11 -10 14 -16 5 -12 -8 4 -5 -2 7 -13 12 -11 19 -22 16 -26 -4 -3 -1 -6 5
-6 7 0 12 -7 12 -15 0 -9 7 -18 15 -21 8 -4 12 -10 9 -15 -3 -5 2 -9 11 -9 9
0 14 -4 10 -9 -3 -5 5 -22 19 -36 48 -55 56 -65 56 -78 0 -7 13 -26 30 -42 17
-16 30 -34 30 -42 0 -7 9 -17 20 -23 11 -6 20 -17 20 -25 0 -8 8 -20 18 -27 9
-7 18 -19 20 -27 5 -22 28 -40 48 -37 10 2 24 -1 31 -6 7 -5 17 -7 23 -3 5 3
10 1 10 -6 0 -7 10 -9 25 -7 14 3 25 1 25 -4 0 -6 7 -8 15 -5 8 4 17 2 21 -4
3 -5 13 -9 22 -8 10 1 19 0 22 -1 21 -8 95 -23 118 -23 12 -1 22 -4 22 -8 0
-3 10 -7 23 -7 25 -1 45 -6 69 -16 9 -4 21 -5 27 -2 5 4 13 1 16 -5 4 -5 13
-8 21 -5 7 3 16 1 20 -5 3 -6 16 -9 27 -8 12 0 25 0 30 -1 4 -1 12 -4 17 -5 6
-1 12 -4 15 -5 3 -1 14 -4 25 -5 11 -1 21 -3 23 -5 5 -4 43 -12 65 -13 12 0
22 -4 22 -7 0 -3 10 -7 23 -8 38 -3 62 -8 75 -16 6 -4 16 -5 21 -1 5 3 13 1
16 -5 4 -6 15 -8 26 -5 10 4 19 2 19 -3 0 -6 8 -9 18 -7 9 1 22 -1 27 -5 6 -4
17 -8 25 -8 8 0 26 -3 40 -7 40 -10 84 -18 103 -19 9 0 17 -4 17 -9 0 -5 11
-7 25 -5 14 3 25 1 25 -4 0 -6 7 -8 15 -5 8 4 17 1 21 -4 3 -6 17 -9 30 -6 14
2 27 0 30 -5 3 -4 9 -6 14 -3 5 3 11 1 14 -4 4 -5 18 -8 32 -5 15 3 23 1 20
-5 -4 -5 2 -10 11 -11 71 -3 83 -5 83 -12 0 -4 9 -5 20 -3 11 2 20 -1 20 -7 0
-6 9 -8 20 -5 11 3 23 1 26 -5 3 -5 12 -7 20 -4 7 3 16 1 20 -5 3 -5 14 -7 25
-4 10 4 19 2 19 -4 0 -5 9 -8 20 -6 11 2 22 0 25 -5 3 -4 13 -7 23 -6 12 2 17
12 16 34 0 18 4 32 10 32 6 0 4 5 -4 10 -13 9 -13 10 0 10 13 0 13 1 0 10 -10
6 -11 10 -2 10 14 0 12 21 -3 32 -6 5 -6 8 2 8 6 0 10 9 8 20 -2 11 0 18 6 15
5 -4 9 -2 9 4 0 5 -8 15 -17 20 -10 6 -13 11 -7 11 8 0 11 17 10 44 -2 37 0
43 13 38 14 -5 14 -3 2 11 -7 9 -17 14 -22 11 -5 -3 -6 2 -2 11 5 13 7 14 14
3 8 -13 10 -11 13 14 0 6 8 13 16 15 13 4 13 3 0 -6 -12 -8 -11 -10 7 -8 16 1
19 5 12 13 -7 8 -6 14 1 19 6 4 7 13 1 23 -4 9 -7 25 -6 35 3 15 1 16 -11 6
-12 -9 -12 -15 -2 -27 11 -13 11 -14 -1 -7 -10 6 -12 4 -6 -5 6 -9 4 -11 -5
-5 -8 5 -11 4 -6 -3 4 -6 13 -9 21 -5 26 9 16 -5 -13 -20 -23 -11 -29 -11 -29
-1 0 7 4 11 9 8 11 -7 10 3 -2 26 -9 16 -8 19 7 13 14 -5 12 0 -7 22 -14 16
-19 25 -11 20 11 -6 13 -4 8 8 -3 9 -3 16 1 16 22 -4 24 3 4 17 -15 10 -20 20
-14 27 5 7 8 31 7 53 -1 34 1 41 14 36 14 -5 14 -3 2 11 -7 9 -17 14 -22 11
-5 -3 -6 2 -2 11 5 13 7 14 14 3 8 -13 10 -11 13 14 0 6 8 13 16 15 13 4 13 3
0 -6 -12 -8 -11 -10 7 -8 16 1 19 5 12 13 -7 8 -6 14 1 19 6 4 7 13 1 23 -4 9
-7 25 -6 35 3 15 1 16 -11 6 -12 -9 -12 -15 -2 -27 11 -13 11 -14 -1 -7 -10 6
-12 4 -6 -5 6 -9 4 -11 -5 -5 -8 5 -11 4 -6 -3 4 -6 13 -9 21 -5 26 9 16 -5
-13 -20 -23 -11 -29 -11 -29 -1 0 7 4 11 9 8 11 -7 10 3 -2 26 -9 16 -8 19 7
13 14 -5 12 0 -7 22 -14 16 -19 25 -11 20 11 -6 13 -4 8 8 -3 9 -3 16 1 16 22
-4 24 3 4 17 -15 10 -20 20 -14 27 5 7 8 31 7 53 -1 34 1 41 14 36 14 -5 14
-3 2 11 -7 9 -17 14 -22 11 -5 -3 -6 2 -2 11 5 13 7 14 14 3 8 -13 10 -11 13
14 0 6 8 13 16 15 13 4 13 3 0 -6 -12 -8 -11 -10 7 -8 16 1 19 5 12 13 -7 8
-6 14 1 19 6 4 7 13 1 23 -4 9 -7 25 -6 35 3 15 1 16 -11 6 -12 -9 -12 -15 -2
-27 11 -13 11 -14 -1 -7 -10 6 -12 4 -6 -5 6 -9 4 -11 -5 -5 -8 5 -11 4 -6 -3
4 -6 13 -9 21 -5 26 9 16 -5 -13 -20 -23 -11 -29 -11 -29 -1 0 7 4 11 9 8 11
-7 10 3 -2 26 -9 16 -8 19 7 13 14 -5 12 0 -7 22 -14 16 -19 25 -11 20 11 -6
13 -4 8 8 -3 9 -3 16 1 16 22 -4 24 3 4 17 -15 10 -20 20 -14 27 5 7 8 31 7
53 -1 34 1 41 14 36 14 -5 14 -3 2 11 -7 9 -17 14 -22 11 -5 -3 -6 2 -2 11 5
13 7 14 14 3 8 -13 10 -11 13 14 0 6 8 13 16 15 13 4 13 3 0 -6 -12 -8 -11
-10 7 -8 16 1 19 5 12 13 -7 8 -6 14 1 19 6 4 7 13 1 23 -4 9 -7 25 -6 35 3
15 1 16 -11 6 -12 -9 -12 -15 -2 -27 11 -13 11 -14 -1 -7 -10 6 -12 4 -6 -5 6
-9 4 -11 -5 -5 -8 5 -11 4 -6 -3 4 -6 13 -9 21 -5 26 9 16 -5 -13 -20 -23 -11
-29 -11 -29 -1 0 7 4 11 9 8 11 -7 10 3 -2 26 -9 16 -8 19 7 13 14 -5 12 0 -7
22 -14 16 -19 25 -11 20 11 -6 13 -4 8 8 -3 9 -3 16 1 16 22 -4 24 3 4 17 -15
10 -20 20 -14 27 5 7 8 31 7 53 -1 34 1 41 14 36 14 -5 14 -3 2 11 -7 9 -17
14 -22 11 -5 -3 -6 2 -2 11 5 13 7 14 14 3 8 -13 10 -11 13 14 0 6 8 13 16 15
13 4 13 3 0 -6 -12 -8 -11 -10 7 -8 16 1 19 5 12 13 -7 8 -6 14 1 19 6 4 7 13
1 23 -4 9 -7 25 -6 35 3 15 1 16 -11 6 -12 -9 -12 -15 -2 -27 11 -13 11 -14
-1 -7 -10 6 -12 4 -6 -5 6 -9 4 -11 -5 -5 -8 5 -11 4 -6 -3 4 -6 13 -9 21 -5
26 9 16 -5 -13 -20 -23 -11 -29 -11 -29 -1 0 7 4 11 9 8 11 -7 10 3 -2 26 -9
16 -8 19 7 13 14 -5 12 0 -7 22 -14 16 -19 25 -11 20 11 -6 13 -4 8 8 -3 9 -3
16 1 16 22 -4 24 3 4 17 -15 10 -20 20 -14 27 5 7 8 31 7 53 -1 34 1 41 14 36
14 -5 14 -3 2 11 -7 9 -17 14 -22 11 -5 -3 -6 2 -2 11 5 13 7 14 14 3 8 -13
10 -11 13 14 0 6 8 13 16 15 13 4 13 3 0 -6 -12 -8 -11 -10 7 -8 16 1 19 5 12
13 -7 8 -6 14 1 19 6 4 7 13 1 23 -4 9 -7 25 -6 35 3 15 1 16 -11 6 -12 -9
-12 -15 -2 -27 11 -13 11 -14 -1 -7 -10 6 -12 4 -6 -5 6 -9 4 -11 -5 -5 -8 5
-11 4 -6 -3 4 -6 13 -9 21 -5 26 9 16 -5 -13 -20 -23 -11 -29 -11 -29 -1 0 7
4 11 9 8 11 -7 10 3 -2 26 -9 16 -8 19 7 13 14 -5 12 0 -7 22 -14 16 -19 25
-11 20 11 -6 13 -4 8 8 -3 9 -3 16 1 16 22 -4 24 3 4 17 -15 10 -20 20 -14 27
5 7 8 31 7 53 -1 34 1 41 14 36 14 -5 14 -3 2 11 -7 9 -17 14 -22 11 -5 -3 -6
2 -2 11 5 13 7 14 14 3 8 -13 10 -11 13 14 0 6 8 13 16 15 13 4 13 3 0 -6 -12
-8 -11 -10 7 -8 16 1 19 5 12 13 -7 8 -6 14 1 19 6 4 7 13 1 23 -4 9 -7 25 -6
35 3 15 1 16 -11 6 -12 -9 -12 -15 -2 -27 11 -13 11 -14 -1 -7 -10 6 -12 4 -6
-5 6 -9 4 -11 -5 -5 -8 5 -11 4 -6 -3 4 -6 13 -9 21 -5 26 9 16 -5 -13 -20
-23 -11 -29 -11 -29 -1 0 7 4 11 9 8 11 -7 10 3 -2 26 -9 16 -8 19 7 13 14 -5
12 0 -7 22 -14 16 -19 25 -11 20 11 -6 13 -4 8 8 -3 9 -3 16 1 16 22 -4 24 3
4 17 -15 10 -20 20 -14 27 5 7 8 31 7 53 -1 34 1 41 14 36 14 -5 14 -3 2 11
-7 9 -17 14 -22 11 -5 -3 -6 2 -2 11 5 13 7 14 14 3 8 -13 10 -11 13 14 0 6 8
13 16 15 13 4 13 3 0 -6 -12 -8 -11 -10 7 -8 16 1 19 5 12 13 -7 8 -6 14 1 19
6 4 7 13 1 23 -4 9 -7 25 -6 35 3 15 1 16 -11 6 -12 -9 -12 -15 -2 -27 11 -13
11 -14 -1 -7 -10 6 -12 4 -6 -5 6 -9 4 -11 -5 -5 -8 5 -11 4 -6 -3 4 -6 13 -9
21 -5 26 9 16 -5 -13 -20 -23 -11 -29 -11 -29 -1 0 7 4 11 9 8 11 -7 10 3 -2
26 -9 16 -8 19 7 13 14 -5 12 0 -7 22 -14 16 -19 25 -11 20 11 -6 13 -4 8 8
-3 9 -3 16 1 16 22 -4 24 3 4 17 -15 10 -20 20 -14 27 5 7 8 31 7 53 -1 34 1
41 14 36 14 -5 14 -3 2 11 -7 9 -17 14 -22 11 -5 -3 -6 2 -2 11 5 13 7 14 14
3 8 -13 10 -11 13 14 0 6 8 13 16 15 13 4 13 3 0 -6 -12 -8 -11 -10 7 -8 16 1
19 5 12 13 -7 8 -6 14 1 19 6 4 7 13 1 23 -4 9 -7 25 -6 35 3 15 1 16 -11 6
-12 -9 -12 -15 -2 -27 11 -13 11 -14 -1 -7 -10 6 -12 4 -6 -5 6 -9 4 -11 -5
-5 -8 5 -11 4 -6 -3 4 -6 13 -9 21 -5 26 9 16 -5 -13 -20 -23 -11 -29 -11 -29
-1 0 7 4 11 9 8 11 -7 10 3 -2 26 -9 16 -8 19 7 13 14 -5 12 0 -7 22 -14 16
-19 25 -11 20 11 -6 13 -4 8 8 -3 9 -3 16 1 16 22 -4 24 3 4 17 -15 10 -20 20
-14 27 5 7 8 31 7 53 -1 34 1 41 14 36 14 -5 14 -3 2 11 -7 9 -17 14 -22 11
-5 -3 -6 2 -2 11 5 13 7 14 14 3 8 -13 10 -11 13 14 0 6 8 13 16 15 13 4 13 3
0 -6 -12 -8 -11 -10 7 -8 16 1 19 5 12 13 -7 8 -6 14 1 19 6 4 7 13 1 23 -4 9
-7 25 -6 35 3 15 1 16 -11 6 -12 -9 -12 -15 -2 -27 11 -13 11 -14 -1 -7 -10 6
-12 4 -6 -5 6 -9 4 -11 -5 -5 -8 5 -11 4 -6 -3 4 -6 13 -9 21 -5 26 9 16 -5
-13 -20 -23 -11 -29 -11 -29 -1 0 7 4 11 9 8 11 -7 10 3 -2 26 -9 16 -8 19 7
13 14 -5 12 0 -7 22 -14 16 -19 25 -11 20 11 -6 13 -4 8 8 -3 9 -3 16 1 16 22
-4 24 3 4 17 -15 10 -20 20 -14 27 5 7 8 31 7 53 -1 34 1 41 14 36 14 -5 14
-3 2 11 -7 9 -17 14 -22 11 -5 -3 -6 2 -2 11 5 13 7 14 14 3 8 -13 10 -11 13
14 0 6 8 13 16 15 13 4 13 3 0 -6 -12 -8 -11 -10 7 -8 16 1 19 5 12 13 -7 8
-6 14 1 19 6 4 7 13 1 23 -4 9 -7 25 -6 35 3 15 1 16 -11 6 -12 -9 -12 -15 -2
-27 11 -13 11 -14 -1 -7 -10 6 -12 4 -6 -5 6 -9 4 -11 -5 -5 -8 5 -11 4 -6 -3
4 -6 13 -9 21 -5 26 9 16 -5 -13 -20 -23 -11 -29 -11 -29 -1 0 7 4 11 9 8 11
-7 10 3 -2 26 -9 16 -8 19 7 13 14 -5 12 0 -7 22 -14 16 -19 25 -11 20 11 -6
13 -4 8 8 -3 9 -3 16 1 16 22 -4 24 3 4 17 -15 10 -20 20 -14 27 5 7 8 31 7
53 -1 34 1 41 14 36 14 -5 14 -3 2 11 -7 9 -17 14 -22 11 -5 -3 -6 2 -2 11 5
13 7 14 14 3 8 -13 10 -11 13 14 0 6 8 13 16 15 13 4 13 3 0 -6 -12 -8 -11
-10 7 -8 16 1 19 5 12 13 -7 8 -6 14 1 19 6 4 7 13 1 23 -4 9 -7 25 -6 35 3
15 1 16 -11 6 -12 -9 -12 -15 -2 -27 11 -13 11 -14 -1 -7 -10 6 -12 4 -6 -5 6
-9 4 -11 -5 -5 -8 5 -11 4 -6 -3 4 -6 13 -9 21 -5 26 9 16 -5 -13 -20 -23 -11
-29 -11 -29 -1 0 7 4 11 9 8 11 -7 10 3 -2 26 -9 16 -8 19 7 13 14 -5 12 0 -7
22 -14 16 -19 25 -11 20 11 -6 13 -4 8 8 -3 9 -3 16 1 16 22 -4 24 3 4 17 -15
10 -20 20 -14 27 5 7 8 31 7 53 -1 34 1 41 14 36 14 -5 14 -4 1 14 -8 10 -21
25 -27 32 -7 7 -13 18 -13 23 0 6 -5 7 -10 4 -8 -5 -7 -12 2 -23 11 -15 11
-15 -3 -5 -9 7 -18 11 -21 8 -3 -3 -11 1 -18 10 -14 17 -35 21 -25 5 3 -5 1
-10 -5 -10 -6 0 -9 8 -6 18 4 13 0 18 -15 19 -18 2 -19 0 -8 -15 11 -14 11
-15 0 -5 -7 6 -20 9 -27 6 -17 -6 -18 6 -3 27 9 12 10 11 5 -5 -5 -17 -4 -18
7 -5 13 16 42 26 33 12 -3 -5 1 -9 9 -9 8 0 15 4 15 9 0 7 -15 12 -32 9 -5 0
-8 4 -8 9 0 6 5 10 10 10 6 0 10 5 10 11 0 8 -5 7 -16 -2 -13 -10 -17 -10 -25
2 -8 12 -9 12 -7 -1 1 -8 -6 -28 -15 -45 -13 -22 -16 -24 -12 -8 5 18 3 22 -9
17 -9 -3 -14 -9 -11 -13 6 -10 -33 -7 -42 4 -5 4 -3 5 3 2 7 -4 14 0 17 7 3 8
16 20 28 26 12 7 19 8 15 2 -3 -6 -2 -13 4 -17 6 -3 10 3 10 15 0 14 -5 20
-12 17 -48 -19 -53 -19 -29 2 13 12 18 21 13 21 -6 0 -13 -4 -16 -9 -4 -5 -14
-8 -24 -6 -9 1 -23 -2 -30 -8 -9 -7 -11 -6 -6 7 3 9 1 16 -6 16 -6 0 -8 5 -4
12 4 7 3 8 -5 4 -9 -6 -9 -11 0 -22 7 -9 8 -14 1 -14 -6 0 -14 5 -17 10 -4 6
-16 8 -28 4 -20 -6 -21 -5 -7 11 9 11 10 16 3 11 -8 -4 -13 -2 -13 5 0 7 -3 9
-7 6 -3 -4 -13 -1 -22 6 -14 11 -14 10 -2 -5 7 -10 10 -18 5 -18 -5 0 0 -7 10
-15 14 -11 16 -15 5 -15 -12 0 -12 -2 1 -10 10 -6 17 -5 23 5 4 8 12 15 17 15
6 0 3 -8 -6 -19 -10 -11 -24 -17 -37 -13 -14 4 -18 2 -13 -7 6 -9 3 -9 -13 1
-12 7 -21 17 -21 22 0 4 7 3 15 -4 9 -8 15 -9 15 -2 0 6 -4 13 -9 16 -12 8
-42 -4 -36 -13 2 -4 -10 -6 -28 -4 -18 2 -40 4 -50 5 -16 2 -17 4 -3 14 9 6
13 14 9 17 -3 4 -13 1 -21 -6 -8 -6 -25 -12 -38 -12 -19 -1 -21 2 -14 21 5 12
6 25 3 28 -4 3 -1 6 6 6 8 0 10 -7 5 -22 -6 -20 -5 -21 9 -9 9 7 14 18 10 25
-4 6 6 3 22 -7 l30 -18 -23 20 c-15 13 -18 21 -10 24 9 4 10 6 1 6 -6 1 -15
-4 -18 -9 -5 -8 -11 -7 -21 1 -11 9 -14 9 -14 0 0 -7 -5 -9 -10 -6 -8 5 -7 11
1 21 7 9 8 14 1 14 -6 0 -13 -6 -15 -12 -4 -9 -6 -9 -6 1 -1 12 -4 11 -14 -2
-11 -16 -14 -16 -35 -1 -19 13 -21 18 -10 32 11 13 11 14 -2 7 -22 -13 -39
-15 -46 -3 -3 5 -15 2 -26 -9 -20 -18 -21 -18 -14 7 4 14 4 21 -1 15 -12 -15
-47 -19 -37 -4 4 8 3 10 -4 5 -7 -4 -22 -9 -34 -11 -29 -6 -48 -25 -25 -25 9
0 17 5 17 11 0 5 5 7 11 3 8 -4 7 -9 -2 -15 -19 -12 -2 -11 21 1 21 11 59 2
40 -10 -8 -5 -9 -10 -2 -14 6 -4 16 3 22 14 6 11 15 18 20 15 5 -3 0 -15 -11
-26 -15 -15 -24 -18 -32 -10 -17 17 -31 13 -17 -4 9 -10 9 -15 1 -15 -10 0
-15 12 -13 31 1 3 -12 6 -28 6 -16 0 -27 -3 -25 -7 2 -4 -2 -7 -9 -7 -8 0 -12
7 -9 15 5 12 2 12 -14 3 -17 -8 -22 -7 -27 4 -3 8 -11 15 -17 15 -8 0 -7 -6 2
-17 13 -16 12 -17 -3 -5 -9 8 -22 11 -27 8 -5 -4 -13 -1 -17 5 -4 7 -3 9 3 6
6 -4 13 0 17 8 3 9 12 12 23 9 15 -5 16 -4 3 6 -13 10 -13 11 0 7 8 -2 15 -10
15 -18 0 -7 9 -15 20 -17 16 -3 17 -1 5 7 -13 10 -13 11 0 12 8 1 19 1 24 0 5
-1 4 5 -4 13 -15 19 -24 21 -14 4 5 -8 2 -9 -12 -3 -10 4 -29 8 -42 8 -18 -1
-20 2 -11 13 12 15 29 14 42 -1 5 -6 7 -4 4 5 -4 17 -26 21 -44 7 -9 -6 -13
-5 -13 4 0 8 -5 6 -14 -6 -13 -18 -13 -18 -25 1 -9 14 -11 15 -7 2 3 -10 -1
-18 -12 -20 -14 -3 -13 -6 7 -17 21 -11 23 -11 18 1 -3 8 1 15 9 15 7 0 10 -5
7 -10 -4 -6 -1 -7 8 -2 8 4 5 -1 -6 -12 -14 -14 -22 -17 -27 -9 -6 8 -11 7
-17 -3 -6 -9 -11 -10 -15 -2 -4 6 -12 8 -18 5 -7 -4 -8 -2 -4 4 4 6 14 8 24 5
14 -6 15 -4 5 9 -7 8 -10 18 -6 21 3 4 3 7 -2 7 -4 0 -13 -8 -20 -17 -12 -16
-59 -28 -50 -12 3 4 -5 7 -18 8 -48 2 -65 6 -61 13 3 4 1 8 -5 8 -5 0 -12 -6
-14 -12 -4 -10 -6 -10 -6 0 -1 7 -5 10 -11 7 -6 -4 -7 1 -3 11 5 13 3 15 -8 8
-8 -5 -23 -9 -35 -9 -16 -1 -20 4 -17 20 4 19 4 19 -10 3 -8 -10 -18 -18 -22
-18 -4 0 -2 7 5 15 12 15 0 22 -14 8 -11 -11 -36 -12 -36 -1 0 6 -9 8 -19 5
-15 -3 -18 -1 -14 12 3 12 0 11 -13 -4 -13 -15 -15 -16 -11 -3 3 9 -1 22 -10
30 -14 11 -15 10 -8 -12 7 -24 7 -24 -9 -5 l-16 20 6 -20 c4 -17 3 -16 -8 3
-8 12 -17 20 -21 16 -4 -4 -1 -14 6 -23 10 -14 10 -14 -4 -4 -9 7 -18 11 -21
8 -3 -3 -11 1 -18 10 -14 17 -35 21 -25 5 3 -6 1 -10 -5 -10 -6 0 -9 8 -6 18
4 13 0 18 -15 19 -18 2 -19 0 -7 -15 11 -15 11 -15 -3 -5 -9 7 -20 9 -24 5 -5
-4 -5 -2 -2 4 4 7 -3 12 -18 12 -22 0 -24 -3 -13 -17 12 -14 11 -14 -4 -3 -9
8 -22 11 -28 7 -8 -5 -7 -1 1 12 12 21 69 28 69 9 0 -6 4 -5 9 3 6 9 10 10 16
2 5 -9 11 -9 23 1 11 9 13 9 9 1 -5 -8 -1 -11 14 -8 16 3 18 1 10 -9 -9 -11
-6 -13 13 -13 22 0 23 2 13 18 -7 11 -17 17 -24 15 -7 -3 -15 -1 -18 4 -3 5 0
10 7 13 7 2 5 3 -5 1 -14 -2 -17 2 -13 14 5 15 4 15 -8 -1 -11 -14 -15 -15
-25 -4 -6 8 -8 17 -4 21 4 4 -1 4 -11 0 -13 -5 -17 -4 -12 4 5 8 1 10 -10 5
-14 -5 -12 -8 10 -20 15 -8 24 -18 21 -24 -4 -5 -13 -3 -21 6 -13 12 -19 13
-37 3 -12 -7 -29 -11 -37 -10 -13 3 -13 2 0 -8 13 -9 13 -11 0 -19 -10 -7 -17
-6 -22 2 -6 9 -8 9 -8 0 0 -8 -9 -9 -30 -3 -17 5 -31 8 -31 7 -1 -1 -3 -544
-4 -1207 -2 -663 -4 -1207 -5 -1210 -1 -3 -1 -9 0 -15 5 -24 2 -104 -5 -115
-5 -9 -4 -11 3 -6 7 4 12 2 12 -3 0 -6 -3 -11 -7 -11 -9 0 -8 -93 1 -108 3 -6
2 -13 -3 -16 -5 -4 -12 -2 -16 4 -4 6 -11 7 -17 4 -6 -4 -1 -12 13 -20 13 -7
18 -13 11 -14 -7 0 -10 -5 -7 -10 4 -6 12 -7 18 -3 9 5 9 3 1 -8 -6 -8 -10
-31 -9 -51 1 -21 -2 -38 -7 -38 -4 0 -6 14 -3 31 3 18 2 28 -4 25 -5 -4 -13
-1 -17 5 -4 8 -3 9 4 5 7 -4 12 -2 12 3 0 6 -7 11 -15 11 -8 0 -15 4 -15 10 0
5 6 7 13 4 8 -3 14 2 14 11 0 8 -7 14 -15 13 -18 -4 -25 31 -10 49 12 15 -3
18 -18 3 -6 -6 -10 -2 -11 13 0 12 1 16 4 9 4 -10 9 -8 19 5 17 22 18 41 2 25
-16 -16 -28 -15 -28 3 0 8 -6 15 -12 15 -7 0 -5 5 5 11 13 8 23 5 43 -10 13
-10 20 -22 15 -25 -5 -4 -8 -15 -6 -26 2 -11 0 -22 -6 -25 -5 -4 -9 -11 -9
-17 0 -17 27 10 33 32 3 11 0 20 -5 20 -7 0 -7 4 0 13 7 8 7 18 2 27 -6 8 -10
11 -10 5 0 -12 -20 16 -20 29 0 5 7 3 15 -4 8 -7 15 -9 15 -5 0 4 -8 14 -17
22 -17 14 -17 14 0 9 11 -4 16 -2 12 5 -4 6 -13 8 -21 5 -8 -3 -14 -1 -14 4 0
6 5 10 12 10 6 0 8 3 5 7 -4 3 -2 11 3 18 7 8 5 12 -5 12 -8 0 -12 -4 -9 -9 3
-4 -2 -8 -10 -8 -18 0 -21 16 -6 25 13 8 13 35 0 35 -5 0 -7 -7 -4 -15 4 -10
2 -13 -8 -10 -15 6 -21 35 -7 35 5 0 7 19 5 43 -3 33 -7 42 -21 42 -10 0 -20
6 -23 14 -3 9 0 11 9 6 8 -5 4 3 -8 16 -18 20 -19 26 -7 37 17 16 18 32 2 32
-6 0 -8 -3 -5 -7 4 -3 1 -13 -5 -21 -14 -16 -20 -45 -9 -37 4 2 8 -1 8 -8 0
-7 4 -20 8 -30 6 -14 4 -18 -10 -15 -10 2 -20 -2 -22 -8 -5 -15 28 -13 45 4
18 17 33 15 26 -3 -4 -8 -10 -13 -14 -10 -5 3 -12 0 -16 -6 -5 -8 -3 -9 6 -4
9 6 11 4 5 -5 -6 -9 -4 -11 4 -5 10 6 11 3 1 -15 -7 -12 -8 -20 -3 -17 5 4 10
0 10 -8 0 -8 -4 -12 -8 -9 -4 2 -10 0 -13 -5 -5 -8 21 -26 34 -23 3 0 6 -8 6
-18 0 -11 -2 -17 -5 -15 -2 3 -10 0 -18 -7 -10 -8 -17 -8 -26 1 -9 10 -8 12 7
9 10 -1 21 3 24 11 3 8 0 11 -7 7 -6 -4 -16 3 -22 18 -7 14 -17 23 -23 20 -6
-3 0 4 13 15 13 12 21 24 17 28 -3 4 -18 -4 -34 -18 l-27 -24 24 27 c14 16 21
31 16 35 -4 5 -10 2 -12 -4 -7 -20 -19 -15 -20 9 -1 11 -8 25 -15 30 -8 6 -4
7 12 2 22 -6 23 -5 11 9 -7 9 -18 14 -24 10 -6 -4 -1 7 11 24 25 35 29 51 9
34 -8 -6 -17 -8 -20 -4 -4 3 -8 -5 -8 -18 -1 -18 -3 -19 -6 -6 -3 10 0 24 6
31 9 10 5 17 -14 30 -14 9 -25 20 -25 25 0 13 36 20 51 9 11 -8 10 -9 -3 -5
-9 3 -18 0 -21 -7 -3 -8 8 -12 40 -12 24 -1 39 3 32 7 -7 4 -19 4 -28 1 -14
-5 -14 -3 -2 11 7 9 18 14 24 10 6 -3 7 -1 3 6 -6 9 -11 9 -22 0 -17 -14 -18
-5 -3 22 5 11 15 16 21 13 7 -4 8 -3 4 4 -9 15 -36 4 -36 -15 0 -9 -6 -13 -14
-10 -7 3 -19 0 -25 -6 -17 -17 -26 0 -10 19 12 15 11 16 -10 9 -16 -5 -21 -4
-17 4 4 6 -3 15 -16 20 -21 9 -21 10 -3 11 11 0 16 4 10 8 -5 4 -10 14 -10 22
0 8 -7 14 -15 12 -8 -2 -12 0 -8 3 4 4 3 16 -3 26 -5 11 -6 19 -2 18 20 -3 27
2 14 10 -12 8 -13 12 -1 25 7 9 10 19 8 22 -3 3 -15 -7 -27 -22 -11 -15 -21
-22 -21 -17 0 6 7 16 15 23 12 10 13 16 4 26 -6 8 -15 11 -20 8 -5 -3 -9 -1
-9 4 0 6 7 13 16 16 8 3 12 10 9 16 -9 15 -27 12 -19 -2 4 -8 3 -10 -2 -5 -5
5 -9 14 -9 20 0 7 -5 12 -12 12 -6 0 -14 3 -18 7 -9 9 17 5 33 -6 7 -4 16 -5
20 -1 4 4 1 10 -5 12 -7 3 -23 14 -35 25 -13 11 -18 17 -12 14 19 -9 24 21 7
36 -15 11 -16 10 -10 -7 7 -20 7 -20 -8 0 -9 11 -13 25 -10 32 3 7 8 20 11 28
3 8 1 15 -5 15 -6 0 -11 -4 -11 -10 0 -5 -4 -10 -9 -10 -4 0 -7 10 -7 23 1 12
-2 28 -7 35 -5 6 -6 12 -1 12 5 0 2 5 -6 11 -13 9 -13 10 0 6 8 -2 14 -10 13
-16 -2 -6 2 -11 7 -11 6 0 10 5 10 10 0 6 13 8 31 5 28 -5 29 -4 16 9 -8 9
-23 14 -33 12 -11 -2 -30 0 -44 5 -17 5 -19 7 -7 8 10 1 15 6 12 11 -4 6 -10
8 -15 5 -4 -3 -11 2 -14 11 -6 15 -4 15 19 0 14 -9 31 -14 37 -10 7 5 8 3 3
-6 -6 -9 -4 -11 5 -5 9 6 11 4 5 -5 -6 -9 -4 -11 4 -5 9 5 9 11 3 17 -6 6 -8
17 -5 24 3 8 0 14 -6 14 -6 0 -11 5 -11 11 0 5 4 8 8 5 5 -3 9 1 9 9 0 8 -4
12 -9 9 -4 -3 -8 0 -8 5 0 6 5 11 12 11 6 0 9 2 6 5 -8 8 -58 -16 -58 -28 0
-5 6 -5 13 2 10 8 14 7 15 -4 1 -8 3 -22 4 -30 1 -8 6 -11 11 -8 6 3 7 1 3 -5
-5 -9 -12 -8 -27 1 -10 6 -15 13 -9 15 5 2 10 8 10 13 0 11 -22 8 -31 -5 -9
-12 -31 3 -26 17 2 7 -2 24 -9 39 -8 15 -11 34 -8 42 4 9 1 16 -6 16 -9 0 -7
7 5 20 22 25 9 26 -19 2 -14 -11 -17 -12 -9 -2 8 10 9 21 3 30 -5 8 -7 23 -4
34 4 13 2 16 -6 11 -9 -6 -9 -3 -1 13 14 27 14 35 -1 25 -19 -11 -39 -13 -32
-2 3 5 9 7 14 4 4 -3 14 3 21 12 12 15 12 16 -3 11 -9 -4 -24 0 -35 7 -10 8
-13 15 -7 15 5 0 15 -5 21 -11 9 -9 12 -7 10 10 -1 12 -6 20 -13 17 -7 -3 -20
6 -28 19 -19 29 -20 39 -4 29 8 -5 9 -2 5 10 -4 9 -3 14 2 11 5 -3 12 -1 15 4
3 5 -8 14 -24 21 -26 11 -28 15 -18 28 11 13 10 15 -4 9 -10 -3 -20 -1 -24 5
-4 7 -3 8 4 4 19 -11 14 15 -5 29 -13 9 -13 14 -3 20 7 5 11 4 8 -1 -3 -5 3
-17 14 -26 14 -14 18 -15 18 -4 0 8 -5 18 -10 21 -6 4 -8 11 -5 16 6 9 -3 12
-36 12 -10 0 -15 8 -14 21 1 15 8 21 26 20 13 0 23 -5 21 -12 -1 -7 3 -12 9
-12 5 0 8 -4 4 -9 -3 -5 -1 -12 5 -16 6 -4 8 -11 5 -16 -3 -5 1 -6 9 -3 16 6
30 34 21 42 -3 3 -5 0 -5 -7 0 -7 -5 -9 -10 -6 -6 4 -7 11 -4 17 4 7 2 8 -4 4
-7 -4 -12 -3 -12 3 0 5 3 11 8 14 4 2 1 2 -5 1 -7 -2 -14 0 -14 4 -6 32 -5 52
2 52 5 0 9 5 9 11 0 8 -5 8 -15 -1 -10 -8 -15 -9 -15 -2 0 6 8 16 18 21 10 6
12 11 4 11 -7 0 -10 5 -6 12 4 6 3 8 -3 5 -10 -6 -37 20 -40 38 -1 5 -7 11
-15 13 -9 2 -8 0 2 -7 13 -10 13 -11 0 -11 -12 -1 -11 -3 3 -11 9 -6 15 -14
12 -19 -3 -5 -1 -11 5 -15 6 -4 7 -11 4 -17 -5 -7 -2 -8 6 -3 9 5 11 4 6 -4
-4 -6 -2 -18 4 -26 10 -11 10 -15 1 -15 -7 0 -9 -4 -6 -10 3 -5 1 -10 -5 -10
-7 0 -9 8 -5 21 4 13 3 19 -3 15 -5 -3 -19 3 -31 13 -14 12 -18 22 -11 26 6 3
7 11 4 17 -4 6 -10 5 -15 -3 -9 -15 -11 -11 -13 36 -1 11 -7 19 -13 17 -17 -3
-16 8 2 32 7 10 18 16 22 13 5 -3 14 3 21 13 9 15 9 22 -1 32 -6 7 -19 22 -27
32 -14 18 -13 19 2 13 14 -5 16 -2 8 16 -4 12 -14 20 -22 18 -7 -2 -23 -4 -34
-4 -16 1 -20 -4 -17 -18 4 -15 8 -17 19 -8 8 6 14 8 14 3 0 -4 7 1 15 12 8 10
15 14 15 7 0 -6 -5 -15 -10 -18 -6 -4 -8 -11 -5 -16 4 -5 1 -9 -5 -9 -6 0 -8
-5 -4 -11 4 -8 9 -7 16 2 7 11 8 10 4 -4 -4 -12 -2 -16 6 -11 7 5 8 3 3 -6 -5
-8 -4 -11 2 -7 5 3 10 0 10 -7 0 -9 -9 -13 -23 -10 -19 3 -22 1 -17 -13 5 -15
3 -14 -10 2 -18 24 -13 37 11 28 15 -6 15 -5 3 10 -13 17 -15 16 -35 0 -19
-16 -19 -15 2 8 26 30 30 49 4 26 -17 -15 -18 -15 -19 5 -1 12 -9 26 -18 30
-8 5 -13 13 -10 17 2 5 -2 14 -10 21 -7 6 -11 18 -8 26 3 8 -1 14 -9 14 -19 0
-41 37 -27 46 6 3 16 1 21 -4 8 -8 17 -8 31 -1 15 9 18 8 12 -2 -5 -7 -4 -10
3 -5 7 4 10 -1 7 -14 -3 -13 0 -18 7 -14 6 4 8 3 4 -4 -3 -6 -1 -14 6 -19 21
-12 35 -12 35 3 0 7 -4 11 -8 9 -3 -3 -12 2 -18 9 -10 11 -8 15 6 19 16 4 16
5 1 6 -11 1 -15 7 -12 15 3 8 1 17 -5 21 -7 4 -9 -1 -5 -12 3 -11 -4 -7 -20
11 -18 22 -22 34 -16 47 8 14 6 16 -12 11 -14 -3 -19 -1 -14 6 3 6 1 14 -4 17
-8 5 -5 14 7 28 18 21 18 21 -2 7 -11 -8 -26 -22 -33 -30 -11 -13 -12 -12 -10
5 2 11 9 25 16 30 10 8 9 11 -7 11 -11 0 -17 -4 -15 -8 9 -14 -26 -9 -50 7
-21 14 -25 14 -37 -1 -12 -15 -11 -16 9 -10 15 5 24 3 28 -7 3 -8 15 -13 28
-12 17 2 23 -2 22 -14 0 -9 5 -15 12 -13 8 1 11 -2 6 -9 -4 -8 -3 -9 4 -5 8 4
10 2 6 -8 -3 -9 -18 -14 -35 -14 -20 1 -26 4 -17 9 12 8 5 11 -18 8 -12 -1
-24 26 -18 44 3 9 1 17 -5 17 -6 0 -11 -5 -11 -11 0 -8 -5 -8 -15 1 -8 7 -12
16 -9 21 10 17 -7 31 -22 18 -10 -8 -14 -8 -14 0 0 6 4 11 8 11 4 0 8 9 9 20
1 14 -2 18 -10 13 -7 -4 -21 -8 -32 -10 -11 -1 -14 1 -7 4 9 3 3 11 -17 24
-17 10 -31 26 -31 34 0 8 -5 15 -11 15 -5 0 -7 -5 -3 -12 5 -7 3 -8 -5 -3 -10
5 -10 10 -1 19 8 8 15 6 25 -8 8 -10 16 -24 18 -30 2 -6 8 -8 12 -4 4 4 3 14
-4 21 -9 11 -7 17 6 28 10 8 14 9 10 2 -5 -8 -1 -11 14 -8 18 4 19 2 7 -12
-11 -14 -11 -16 1 -8 10 5 12 4 7 -4 -4 -6 -12 -9 -17 -6 -13 9 -11 -8 4 -29
12 -16 14 -16 26 -2 17 20 35 21 27 0 -4 -10 -2 -13 7 -9 6 4 4 0 -5 -8 -13
-10 -15 -16 -6 -25 16 -16 29 -15 22 2 -3 8 5 24 18 36 l23 22 -22 -11 c-27
-14 -32 3 -5 19 15 10 15 11 0 6 -11 -3 -19 2 -23 15 -6 19 -8 19 -19 3 -9
-12 -15 -14 -20 -6 -4 7 -3 12 1 12 5 0 10 10 10 22 1 13 -1 18 -5 12 -9 -14
-44 -14 -39 0 3 6 10 10 16 8 7 -1 10 2 6 7 -8 13 -35 2 -35 -14 0 -17 -23
-25 -41 -15 -8 5 -19 5 -26 -1 -8 -8 -18 -6 -33 4 -18 12 -18 15 -5 20 8 4 15
11 15 17 0 7 -6 7 -21 0 -11 -7 -23 -9 -27 -6 -3 3 1 6 9 6 11 0 11 2 -1 10
-12 8 -12 10 -1 10 20 0 5 13 -19 17 -11 2 -20 -2 -20 -7 0 -6 5 -10 10 -10 6
0 10 -8 10 -17 0 -13 -6 -10 -20 12 -12 18 -18 40 -15 57 3 15 1 29 -5 33 -5
3 -7 13 -4 23 5 13 4 14 -4 4 -7 -11 -10 -11 -16 3 -4 11 -12 14 -26 10 -12
-4 -28 -1 -37 7 -10 7 -14 8 -10 1 4 -6 1 -13 -5 -16 -7 -2 -9 -8 -5 -13 4 -5
12 -2 17 6 6 10 10 11 10 3 0 -7 6 -11 13 -9 6 1 9 1 5 -1 -15 -9 -8 -19 14
-20 13 -1 18 1 13 5 -14 10 -17 32 -5 32 5 0 10 -6 10 -14 0 -8 7 -17 16 -20
9 -4 12 -11 7 -18 -4 -7 -6 -21 -5 -30 2 -11 -3 -16 -17 -15 -11 0 -18 4 -15
8 2 4 -2 12 -10 18 -11 9 -15 9 -20 -1 -3 -7 -3 -2 0 12 6 24 6 24 -13 7 -16
-14 -20 -14 -20 -3 0 8 5 14 10 13 5 -1 11 3 14 9 5 14 -27 13 -43 -1 -7 -5
-9 -14 -6 -19 3 -5 0 -6 -7 -2 -9 6 -9 12 3 25 22 24 20 38 -3 17 -17 -16 -19
-15 -34 6 -13 19 -16 20 -16 6 -1 -10 -6 -18 -12 -18 -5 0 -8 4 -4 9 3 5 1 12
-5 16 -5 3 -10 1 -10 -6 0 -7 -3 -9 -6 -6 -4 4 -1 13 5 21 7 8 8 17 3 20 -6 3
-12 -1 -16 -9 -3 -8 -16 -14 -28 -14 l-23 2 23 4 c26 5 30 21 4 19 -9 0 -16 4
-15 11 2 6 -6 11 -17 10 -20 -1 -29 -17 -10 -17 6 0 10 -5 10 -11 0 -8 -4 -9
-13 0 -8 6 -17 8 -21 4 -4 -4 -4 1 0 12 7 17 6 18 -8 7 -13 -10 -17 -10 -21 2
-4 11 -1 13 10 9 10 -4 14 -2 10 4 -8 12 18 12 29 0 4 -4 13 -2 21 4 9 9 13 8
13 0 0 -6 3 -10 8 -10 19 3 33 -2 27 -11 -3 -6 1 -7 9 -4 14 5 21 -5 17 -28 0
-4 8 -6 19 -5 24 2 26 15 5 23 -8 4 -15 11 -15 16 0 6 6 5 15 -2 19 -16 19 -3
0 16 -8 9 -15 11 -15 5 0 -6 -8 -11 -17 -11 -16 0 -16 2 -3 11 12 8 12 10 -5
8 -33 -2 -46 1 -41 9 3 5 -1 9 -9 9 -8 0 -12 -4 -9 -9 3 -4 -2 -8 -10 -8 -12
0 -14 5 -6 26 7 16 7 23 0 19 -6 -3 -10 -13 -10 -21 0 -8 -3 -14 -7 -13 -18 3
-53 -14 -53 -25 0 -6 -5 -4 -11 4 -8 12 -9 11 -6 -5 2 -11 9 -19 16 -17 7 1
10 -2 6 -8 -10 -16 -44 11 -37 29 5 14 4 14 -13 1 -11 -9 -16 -10 -11 -2 4 6
3 12 -3 12 -5 0 -12 -6 -14 -12 -4 -10 -6 -9 -6 1 -1 11 -4 11 -18 0 -11 -10
-14 -10 -9 -1 4 6 2 12 -3 12 -6 0 -11 -6 -11 -12 0 -7 -7 -2 -16 10 -8 12
-20 22 -26 22 -6 0 -3 -10 8 -22 15 -19 16 -20 2 -9 -10 7 -18 10 -18 6 0 -4
-12 1 -27 10 -25 17 -26 17 -20 -1 7 -18 6 -18 -6 -2 -8 10 -17 15 -21 11 -3
-4 -36 -7 -71 -8 -62 -2 -79 5 -53 21 7 5 8 3 3 -7 -7 -11 -6 -12 7 -2 8 7 17
10 21 7 3 -3 15 0 27 6 12 7 20 8 16 2 -6 -10 23 -26 32 -17 3 3 0 5 -6 5 -7
0 -12 7 -12 16 0 11 -6 14 -22 8 l-23 -7 20 24 c17 20 15 19 -17 -5 -33 -24
-37 -25 -46 -10 -8 15 -10 15 -17 -2 -4 -11 -9 -25 -9 -33 -1 -8 -7 -15 -14
-17 -7 -1 -8 0 -2 3 14 7 13 24 -2 20 -7 -1 -18 -9 -25 -17 -7 -8 -13 -11 -13
-6 0 5 -6 3 -14 -3 -10 -8 -16 -9 -21 -1 -3 6 -12 7 -18 3 -21 -13 -37 -12
-37 4 0 13 3 13 16 3 13 -12 14 -10 2 14 l-12 28 -10 -28 c-8 -27 -21 -41 -38
-43 -5 -1 -8 2 -8 7 0 4 5 7 12 7 14 0 21 42 8 50 -6 4 -7 -1 -3 -11 5 -13 3
-15 -7 -9 -8 5 -11 4 -7 -2 7 -11 -22 -41 -32 -34 -20 16 -28 27 -23 35 3 5 0
6 -7 2 -7 -5 -10 -11 -7 -14 3 -3 -1 -13 -9 -22 -13 -14 -13 -17 0 -17 8 0 12
3 10 7 -2 4 2 7 10 7 17 0 21 -16 5 -18 -5 -1 -16 -2 -22 -4 -7 -1 -23 4 -35
12 -13 7 -23 11 -23 7 0 -4 -8 0 -17 7 -10 8 -14 9 -10 2 4 -6 3 -14 -2 -17
-10 -7 -24 22 -16 34 3 5 1 11 -4 14 -5 4 -8 -5 -7 -18 2 -17 -1 -23 -10 -19
-8 3 -11 10 -7 17 4 6 -1 5 -10 -3 -18 -14 -24 -2 -7 15 7 7 6 11 -4 11 -8 0
-13 -4 -11 -8 3 -3 -2 -12 -9 -18 -10 -8 -16 -9 -21 -1 -3 5 -1 10 4 10 6 0
11 5 11 11 0 5 -4 8 -9 5 -5 -4 -11 0 -13 6 -3 7 -5 -4 -5 -24 0 -33 2 -36 20
-27 10 6 21 8 24 6 2 -3 -5 -8 -16 -12 -12 -3 -18 -11 -15 -17 4 -6 10 -5 15
3 8 12 11 12 18 -1 6 -8 13 -11 18 -7 4 5 1 12 -6 16 -8 5 -9 11 -3 15 5 3 12
0 15 -7 3 -8 19 -13 41 -12 41 2 45 -4 15 -23 -12 -8 -18 -9 -14 -3 10 17 -6
13 -29 -6 -20 -17 -20 -17 -7 0 15 20 9 22 -21 6 -15 -8 -19 -8 -14 0 10 15
-7 14 -23 -1 -8 -8 -11 -8 -8 -2 11 18 -20 39 -37 25 -11 -9 -13 -6 -11 14 2
14 -1 27 -6 31 -9 5 -13 -8 -10 -36 1 -9 -1 -11 -6 -5 -4 6 -14 10 -20 10 -7
0 -12 3 -10 6 3 10 -34 49 -46 49 -6 0 -3 -8 6 -18 19 -21 22 -32 7 -32 -6 0
-9 3 -9 8 3 20 -2 25 -12 12 -9 -13 -10 -12 -5 2 3 10 1 20 -4 23 -6 4 -10 2
-10 -4 0 -6 -13 -9 -28 -8 -22 2 -28 6 -24 20 2 9 -1 17 -7 17 -7 0 -10 -4 -6
-9 3 -5 1 -12 -4 -15 -5 -4 -13 -1 -16 5 -4 5 -13 8 -21 5 -19 -7 -18 4 4 21
16 14 16 14 -2 9 -10 -4 -25 -1 -32 5 -17 14 -18 -2 -1 -21 10 -12 9 -12 -5
-1 -9 7 -21 10 -26 8 -4 -3 -14 -1 -22 5 -12 8 -12 9 2 4 11 -3 23 3 32 15 12
18 17 19 36 9 12 -7 20 -8 17 -3 -4 5 0 10 7 10 8 0 12 -10 10 -29 -4 -28 -3
-28 20 -13 17 12 26 13 31 5 4 -6 13 -9 21 -6 7 3 18 -3 23 -12 7 -12 10 -13
11 -3 0 10 3 11 13 2 8 -6 18 -7 22 -3 5 4 5 2 1 -5 -4 -8 0 -11 14 -8 11 2
20 0 20 -6 0 -5 5 -9 11 -9 5 0 8 4 5 9 -4 5 2 8 11 6 10 -1 17 -8 15 -14 -1
-6 2 -11 8 -11 5 0 10 7 10 15 0 8 -6 15 -12 15 -9 0 -8 4 2 10 9 6 10 10 3
10 -6 0 -15 -5 -19 -12 -5 -7 -11 -5 -21 7 -14 20 -63 32 -63 17 0 -5 -7 -9
-15 -9 -18 0 -20 14 -3 19 7 3 5 7 -6 11 -9 4 -15 3 -12 -2 3 -5 -5 -8 -18 -8
-18 0 -23 4 -18 16 5 14 3 13 -12 -2 -19 -19 -38 -14 -30 8 4 9 -2 14 -18 14
-12 0 -33 1 -46 1 -30 0 -62 29 -54 49 5 13 3 13 -12 -2 -21 -20 -40 -13 -33
14 3 11 1 17 -4 13 -5 -3 -9 -12 -9 -20 0 -8 -7 -14 -17 -14 -15 0 -10 -15 5
-15 4 0 13 -4 20 -8 6 -5 12 -5 12 0 0 4 5 1 10 -7 6 -10 10 -11 10 -2 0 6 5
12 11 12 5 0 7 -5 3 -12 -5 -7 -3 -8 6 -3 9 5 11 4 6 -4 -4 -6 -4 -10 1 -9 4
2 8 -1 8 -7 0 -5 -4 -9 -9 -7 -5 2 -18 -5 -29 -15 -11 -10 -17 -13 -14 -6 4 6
1 14 -5 17 -7 3 -4 4 6 3 10 -1 21 3 23 9 4 13 -45 13 -64 1 -7 -4 -25 -1 -41
7 -16 8 -32 12 -36 9 -3 -4 -6 -2 -7 3 0 5 -2 19 -3 31 -2 12 2 19 7 16 6 -3
7 -1 3 6 -4 6 -2 20 6 29 12 15 11 16 -5 3 -15 -12 -20 -11 -36 3 -11 10 -25
14 -36 10 -13 -5 -16 -4 -11 5 5 7 2 10 -6 9 -7 -2 -12 3 -10 11 3 12 1 12
-13 1 -13 -11 -19 -9 -41 11 -17 16 -23 18 -19 7 8 -19 -18 -19 -37 0 -15 15
-32 16 -23 2 3 -5 2 -10 -4 -10 -5 0 -12 6 -14 13 -4 10 -6 10 -8 0z m182
-130 c13 -16 12 -17 -3 -4 -10 7 -18 15 -18 17 0 8 8 3 21 -13z m513 -89 c4
-10 -13 -12 -34 -4 -3 1 -9 2 -13 1 -5 -1 -6 3 -3 8 9 13 44 10 50 -5z m2786
10 c0 -8 -19 -13 -24 -6 -3 5 1 9 9 9 8 0 15 -2 15 -3z m-2550 -89 c7 -9 8
-15 2 -15 -5 0 -12 7 -16 15 -3 8 -4 15 -2 15 2 0 9 -7 16 -15z m3402 -90 c3
3 13 -6 22 -20 9 -14 21 -23 26 -20 6 4 10 3 11 -2 0 -4 2 -15 4 -24 1 -9 -4
-16 -11 -16 -8 0 -14 4 -14 9 0 4 6 8 13 8 8 0 8 3 -2 9 -10 7 -19 4 -28 -7
-12 -16 -14 -16 -28 2 -11 14 -15 16 -15 5 0 -12 -2 -12 -10 1 -6 10 -4 20 5
30 12 13 12 19 2 30 -10 12 -9 12 4 2 9 -6 18 -9 21 -7z m109 -63 c-6 -2 -9
-7 -7 -11 3 -4 -1 -8 -9 -8 -8 0 -15 4 -15 9 0 4 5 8 10 8 6 0 10 5 10 10 0 6
-3 9 -7 9 -17 -3 -24 2 -18 12 5 7 14 4 27 -8 11 -10 15 -19 9 -21z m311 -56
c37 23 47 1 14 -32 -18 -18 -18 -17 -12 3 5 16 3 21 -11 19 -10 0 -22 -7 -26
-14 -5 -7 -12 -10 -18 -7 -5 4 -9 1 -9 -5 0 -6 -5 -8 -11 -4 -8 4 -7 9 2 15 7
4 17 5 23 2 5 -4 7 1 3 9 -8 21 3 31 19 17 7 -6 19 -7 26 -3z m-2478 -52 c3
-8 2 -12 -4 -9 -5 3 -19 1 -30 -5 -16 -9 -18 -8 -14 5 3 8 10 13 14 10 5 -3
11 -1 15 5 8 14 12 13 19 -6z m144 -195 c-9 -6 -9 -9 -1 -9 7 0 17 -9 23 -19
9 -17 7 -19 -12 -15 -13 3 -28 6 -35 6 -7 1 -10 5 -7 10 3 4 1 8 -5 8 -5 0
-11 -5 -13 -12 -3 -8 -7 -6 -11 4 -5 13 0 16 23 13 24 -3 28 -1 25 15 -3 13 1
17 12 13 12 -5 12 -7 1 -14z m203 -396 c13 -16 12 -17 -3 -4 -17 13 -22 21
-14 21 2 0 10 -8 17 -17z m-31 -72 c0 -4 -6 -8 -13 -8 -8 0 -14 6 -14 13 0 7
6 10 14 7 7 -3 13 -8 13 -12z m58 -206 c-3 -3 -9 2 -12 12 -6 14 -5 15 5 6 7
-7 10 -15 7 -18z m537 -1305 c-4 -6 -2 -17 5 -25 6 -8 7 -16 2 -19 -6 -3 -15
1 -22 9 -7 8 -20 15 -29 15 -14 0 -14 2 -1 10 9 6 17 5 22 -3 5 -8 8 -6 8 6 0
9 5 17 11 17 5 0 7 -5 4 -10z m-27 -48 c2 -7 -1 -12 -8 -12 -6 0 -9 4 -6 9 4
5 1 12 -4 14 -6 3 -5 4 2 3 6 -1 14 -8 16 -14z m-1481 -175 c-1 -16 3 -21 16
-19 21 4 22 -11 2 -28 -9 -7 -13 -20 -10 -29 4 -13 2 -13 -8 1 -8 10 -17 15
-20 12 -8 -8 -3 18 6 33 4 6 1 14 -5 17 -10 5 -10 7 0 12 10 5 10 9 1 20 -10
12 -9 13 4 8 9 -3 15 -15 14 -27z m28 -346 c-6 -5 -25 10 -25 20 0 5 6 4 14
-3 8 -7 12 -15 11 -17z m-22 -274 c4 3 7 2 7 -4 0 -6 -12 -10 -27 -10 -16 0
-22 2 -15 4 6 3 9 10 5 16 -5 8 -2 8 9 0 8 -7 18 -10 21 -6z m3 -49 c0 -17 -2
-17 -12 -4 -6 9 -15 12 -19 8 -5 -4 -5 -2 -2 4 10 18 33 12 33 -8z m-21 -18
c3 -5 1 -10 -4 -10 -6 0 -11 5 -11 10 0 6 2 10 4 10 3 0 8 -4 11 -10z m19 -54
c-3 -8 0 -17 5 -21 6 -3 9 -11 6 -16 -12 -19 -14 -53 -4 -65 7 -8 7 -14 0 -18
-14 -9 -2 -37 13 -29 6 3 4 -2 -5 -13 -9 -10 -16 -28 -14 -40 1 -14 -5 -20
-19 -21 -12 -1 -15 1 -8 4 6 3 12 9 12 14 0 6 -4 8 -8 5 -4 -2 -9 5 -9 17 -2
15 0 18 6 8 6 -8 11 -9 15 -3 4 6 -2 15 -11 21 -10 6 -12 11 -5 11 6 0 12 5
12 11 0 5 -6 7 -12 3 -7 -4 -10 -4 -6 1 4 4 3 14 -4 22 -6 8 -7 13 -2 12 21
-4 28 2 14 11 -13 8 -12 10 4 10 15 0 16 3 6 15 -7 8 -17 12 -24 8 -7 -4 -6
-1 1 9 7 8 11 18 8 22 -3 3 1 2 7 -4 18 -15 32 -12 18 5 -6 8 -9 19 -5 25 9
15 15 12 9 -4z m26 -320 c0 -2 -7 -9 -15 -16 -13 -11 -14 -10 -9 4 5 14 24 23
24 12z"/>
<path d="M4454 4664 c-10 -8 -13 -13 -6 -9 6 3 15 -1 18 -9 8 -20 20 -21 27
-2 10 24 -17 38 -39 20z"/>
<path d="M2555 4300 c3 -5 8 -10 11 -10 2 0 4 5 4 10 0 6 -5 10 -11 10 -5 0
-7 -4 -4 -10z"/>
<path d="M1804 2089 c-8 -14 14 -19 25 -6 8 10 7 14 -5 14 -8 0 -17 -4 -20 -8z"/>
<path d="M1806 1281 c-4 -5 -2 -12 3 -15 5 -4 12 -2 15 3 4 5 2 12 -3 15 -5 4
-12 2 -15 -3z"/>
<path d="M100 5060 c0 -5 5 -10 11 -10 5 0 7 5 4 10 -3 6 -8 10 -11 10 -2 0
-4 -4 -4 -10z"/>
<path d="M207 5043 c-8 -14 7 -38 25 -41 19 -3 33 14 18 23 -5 3 -10 1 -10 -6
0 -8 -4 -8 -15 1 -8 7 -12 16 -9 21 3 5 3 9 0 9 -3 0 -7 -3 -9 -7z"/>
<path d="M370 5040 c0 -5 5 -10 11 -10 5 0 7 5 4 10 -3 6 -8 10 -11 10 -2 0
-4 -4 -4 -10z"/>
<path d="M270 5018 c0 -4 4 -8 9 -8 6 0 12 4 15 8 3 5 -1 9 -9 9 -8 0 -15 -4
-15 -9z"/>
<path d="M315 5000 c-3 -5 1 -10 10 -10 9 0 13 5 10 10 -3 6 -8 10 -10 10 -2
0 -7 -4 -10 -10z"/>
<path d="M409 5003 c-1 -5 -1 -12 0 -17 1 -4 -4 -15 -11 -24 -10 -12 -10 -14
0 -8 7 4 12 2 12 -5 0 -10 3 -10 11 -2 13 13 39 6 39 -9 0 -6 -6 -5 -15 2 -9
7 -15 8 -15 2 0 -15 31 -24 45 -12 6 5 16 6 20 2 5 -4 5 -1 1 6 -4 7 -11 10
-16 7 -4 -3 -13 2 -19 9 -8 10 -9 16 -1 21 15 9 12 22 -6 29 -14 5 -15 4 -4
-9 8 -10 9 -15 1 -15 -20 0 -26 5 -23 18 2 6 -2 12 -8 12 -5 0 -11 -3 -11 -7z"/>
<path d="M590 4979 c0 -5 5 -7 10 -4 6 3 10 8 10 11 0 2 -4 4 -10 4 -5 0 -10
-5 -10 -11z"/>
<path d="M586 4948 c3 -4 11 -5 19 -1 21 7 19 12 -4 10 -11 0 -18 -5 -15 -9z"/>
<path d="M676 4913 c-6 -14 -5 -15 5 -6 7 7 10 15 7 18 -3 3 -9 -2 -12 -12z"/>
<path d="M1522 4900 c-12 -11 -19 -27 -16 -35 7 -17 24 -20 24 -5 0 6 -6 10
-12 10 -8 0 -9 3 -3 8 13 9 39 42 33 42 -2 0 -14 -9 -26 -20z"/>
<path d="M607 4899 c7 -7 15 -10 18 -7 3 3 -2 9 -12 12 -14 6 -15 5 -6 -5z"/>
<path d="M1350 4906 c0 -2 7 -7 16 -10 8 -3 12 -2 9 4 -6 10 -25 14 -25 6z"/>
<path d="M1424 4894 c-18 -14 -18 -15 4 -4 12 6 22 13 22 15 0 8 -5 6 -26 -11z"/>
<path d="M1562 4899 c2 -7 -3 -13 -9 -14 -7 0 -13 -3 -13 -7 0 -31 1 -32 10
-18 6 9 10 10 10 3 0 -7 10 -18 23 -24 12 -6 19 -8 15 -4 -4 5 -3 14 3 22 10
11 14 10 26 -7 14 -20 39 -18 27 2 -5 7 -2 8 6 3 9 -6 11 -4 5 5 -5 8 -4 11 3
6 6 -4 9 -12 6 -20 -3 -7 2 -13 11 -13 11 0 14 6 9 21 -6 20 -6 20 9 2 16 -21
47 -30 47 -14 0 6 -8 7 -17 3 -13 -4 -15 -3 -7 5 13 13 47 2 38 -12 -4 -6 3
-5 15 2 18 9 21 30 5 30 -3 0 -2 -4 1 -10 3 -5 1 -10 -4 -10 -6 0 -11 8 -11
18 0 10 -3 13 -8 7 -4 -6 -18 -9 -32 -7 -14 1 -40 3 -57 4 -18 0 -31 4 -28 8
6 10 -21 7 -31 -3 -14 -14 -26 -7 -14 8 9 10 9 15 1 15 -11 0 -15 -13 -12 -37
1 -7 -2 -13 -7 -13 -15 0 -22 26 -10 38 6 6 6 12 -1 17 -7 3 -10 1 -9 -6z m78
-39 c6 -11 8 -20 6 -20 -3 0 -10 9 -16 20 -6 11 -8 20 -6 20 3 0 10 -9 16 -20z"/>
<path d="M3487 4899 c7 -7 15 -10 18 -7 3 3 -2 9 -12 12 -14 6 -15 5 -6 -5z"/>
<path d="M1347 4869 c6 -23 9 -24 16 -5 3 8 0 17 -7 19 -10 4 -12 -1 -9 -14z"/>
<path d="M3734 4868 c1 -12 -6 -22 -16 -23 -10 -2 -15 2 -12 10 7 16 -12 29
-21 15 -9 -15 15 -41 35 -38 9 2 23 -2 31 -9 8 -6 17 -12 22 -12 4 0 20 -7 37
-16 18 -9 31 -11 35 -5 9 15 43 6 59 -15 13 -18 36 -14 36 7 0 7 -5 6 -14 -1
-12 -10 -14 -9 -11 6 2 10 4 20 4 23 1 2 6 -1 12 -7 9 -9 15 -8 27 3 8 8 12
18 8 21 -3 4 -6 3 -6 -2 0 -4 -8 -1 -17 6 -16 13 -17 12 -4 -3 8 -11 9 -18 3
-18 -6 0 -14 5 -17 10 -4 6 -11 8 -16 4 -5 -3 -7 -10 -4 -15 4 -5 2 -9 -3 -9
-18 0 -22 14 -7 30 13 14 13 17 1 17 -8 0 -14 -4 -13 -8 1 -4 -2 -7 -8 -7 -5
0 -9 4 -7 9 3 13 -12 11 -26 -3 -9 -9 -12 -9 -12 2 0 7 -3 10 -6 7 -4 -3 -15
-2 -25 4 -11 5 -19 6 -18 2 3 -20 -2 -23 -16 -9 -8 8 -15 19 -15 25 0 5 -4 12
-8 15 -5 3 -8 -4 -8 -16z m27 -35 c13 -16 12 -17 -3 -4 -17 13 -22 21 -14 21
2 0 10 -8 17 -17z m49 -2 c0 -5 11 -8 24 -5 13 2 29 -2 35 -10 9 -11 6 -12
-15 -8 -21 4 -25 2 -19 -9 5 -8 -1 -5 -13 5 -12 11 -22 16 -22 12 0 -4 -5 -4
-10 -1 -12 7 -4 25 11 25 5 0 9 -4 9 -9z"/>
<path d="M699 4862 c13 -24 33 -26 37 -4 2 8 0 8 -3 2 -3 -7 -12 -5 -25 7 -21
18 -21 18 -9 -5z"/>
<path d="M1296 4865 c6 -15 -12 -15 -36 0 -12 7 -13 6 -3 -7 7 -8 9 -19 5 -23
-4 -5 -2 -5 5 -1 6 3 15 2 18 -4 5 -8 11 -7 21 1 8 6 14 8 14 3 0 -5 5 -1 11
9 6 10 8 21 5 24 -3 4 -6 1 -6 -5 0 -7 -5 -12 -11 -12 -5 0 -8 4 -5 9 3 5 -1
11 -9 14 -9 4 -12 1 -9 -8z m14 -21 c0 -8 -19 -13 -24 -6 -3 5 1 9 9 9 8 0 15
-2 15 -3z"/>
<path d="M1150 4840 c0 -5 5 -10 10 -10 6 0 10 5 10 10 0 6 -4 10 -10 10 -5 0
-10 -4 -10 -10z"/>
<path d="M807 4828 c7 -8 10 -18 6 -21 -3 -4 -1 -7 5 -7 22 0 22 19 0 31 -20
11 -21 10 -11 -3z"/>
<path d="M1077 4833 c-10 -9 -9 -23 1 -23 5 0 9 7 9 15 0 17 -1 18 -10 8z"/>
<path d="M4036 4822 c-3 -5 1 -9 9 -9 8 0 12 4 9 9 -3 4 -7 8 -9 8 -2 0 -6 -4
-9 -8z"/>
<path d="M880 4810 c-9 -6 -10 -10 -3 -10 6 0 15 5 18 10 8 12 4 12 -15 0z"/>
<path d="M1984 4793 c2 -18 0 -33 -5 -33 -5 0 -6 -7 -2 -15 5 -14 7 -14 23 0
9 8 20 12 23 8 4 -3 7 1 7 11 0 9 -4 14 -10 11 -5 -3 -10 -2 -10 4 0 5 3 11 8
14 4 2 1 2 -5 1 -7 -2 -17 5 -22 14 -8 13 -10 10 -7 -15z m19 -18 c4 -8 3 -16
-1 -19 -4 -3 -9 4 -9 15 -2 23 3 25 10 4z"/>
<path d="M1875 4800 c-3 -5 -1 -10 4 -10 6 0 11 5 11 10 0 6 -2 10 -4 10 -3 0
-8 -4 -11 -10z"/>
<path d="M3994 4799 c15 -9 16 -13 5 -21 -10 -7 -9 -8 6 -3 15 5 17 3 8 -6
-12 -12 -37 -3 -28 11 3 4 -2 10 -10 14 -8 3 -18 0 -21 -6 -4 -7 -2 -14 4 -16
7 -2 9 -9 6 -14 -4 -7 -2 -8 5 -4 6 4 26 0 43 -8 20 -10 35 -13 41 -7 6 6 15
4 25 -6 14 -14 17 -13 29 2 7 10 10 22 7 26 -8 13 10 11 24 -3 9 -9 12 -9 12
0 0 7 -5 12 -11 12 -5 0 -7 5 -3 11 5 8 1 8 -14 0 -27 -14 -32 -14 -28 2 1 6
1 8 -2 4 -2 -4 -11 -2 -19 5 -12 10 -18 9 -29 -7 -14 -18 -15 -18 -18 7 0 6
-12 13 -26 14 -22 3 -23 3 -6 -7z m93 -29 c14 -11 20 -20 14 -20 -7 0 -9 -5
-5 -12 4 -7 -1 -5 -12 4 -16 14 -23 15 -32 6 -9 -9 -15 -9 -24 1 -11 10 -9 11
5 5 10 -3 17 -3 16 2 -3 16 1 34 7 34 3 0 17 -9 31 -20z"/>
<path d="M4054 4768 c-4 -7 -4 -10 1 -6 4 4 15 2 24 -5 14 -11 14 -10 2 6 -16
20 -18 21 -27 5z"/>
<path d="M4176 4777 c3 -10 9 -15 12 -12 3 3 0 11 -7 18 -10 9 -11 8 -5 -6z"/>
<path d="M2066 4768 c3 -4 11 -5 19 -1 21 7 19 12 -4 10 -11 0 -18 -5 -15 -9z"/>
<path d="M2157 4743 c-10 -9 -9 -23 1 -23 5 0 9 7 9 15 0 17 -1 18 -10 8z"/>
<path d="M4307 4734 c6 -15 23 -19 23 -5 0 5 -7 11 -14 14 -10 4 -13 1 -9 -9z"/>
<path d="M2190 4720 c-9 -6 -10 -10 -3 -10 6 0 15 5 18 10 8 12 4 12 -15 0z"/>
<path d="M2080 4706 c0 -4 10 -17 21 -29 15 -15 20 -17 16 -6 -3 9 0 22 6 28
8 8 8 11 -1 11 -7 0 -12 -5 -12 -11 0 -8 -5 -8 -15 1 -8 7 -15 9 -15 6z"/>
<path d="M2158 4700 c-2 -7 3 -21 11 -30 14 -14 17 -14 29 0 11 13 11 13 6 -2
-4 -12 0 -20 11 -24 13 -6 14 -9 3 -16 -10 -8 -9 -9 4 -4 22 7 33 -11 18 -29
-7 -9 -8 -15 0 -20 17 -11 28 3 25 35 -1 16 1 27 6 24 5 -3 6 -10 3 -16 -4 -6
-3 -8 3 -5 5 3 10 0 10 -8 0 -8 -5 -11 -10 -8 -6 3 -7 1 -3 -6 4 -6 11 -9 16
-6 4 3 10 0 12 -7 3 -9 6 -9 12 0 4 7 2 12 -6 12 -7 0 -2 9 11 19 l24 18 -29
0 c-19 -1 -28 3 -26 12 1 7 -2 10 -9 5 -9 -5 -10 -2 -5 11 5 14 4 16 -7 6 -11
-8 -18 -6 -33 10 -10 12 -18 24 -17 28 1 3 -1 8 -4 11 -4 3 -2 -1 2 -9 6 -11
4 -13 -8 -8 -9 3 -20 1 -23 -5 -5 -8 -10 -5 -14 7 -5 15 -8 16 -12 5z m90 -61
l14 -24 -20 22 c-11 12 -22 19 -26 16 -3 -4 -6 -1 -6 6 0 19 21 8 38 -20z"/>
<path d="M4514 4699 c-4 -7 -3 -9 4 -5 5 3 13 0 15 -6 4 -9 6 -10 6 -1 1 17
-16 25 -25 12z"/>
<path d="M4610 4679 c0 -5 5 -7 10 -4 6 3 10 8 10 11 0 2 -4 4 -10 4 -5 0 -10
-5 -10 -11z"/>
<path d="M2150 4659 c0 -5 5 -7 10 -4 6 3 10 8 10 11 0 2 -4 4 -10 4 -5 0 -10
-5 -10 -11z"/>
<path d="M4730 4660 c0 -5 5 -10 11 -10 5 0 7 5 4 10 -3 6 -8 10 -11 10 -2 0
-4 -4 -4 -10z"/>
<path d="M4671 4639 c4 -9 5 -19 2 -23 -3 -3 -1 -6 6 -6 8 0 11 6 7 16 -3 8
-2 13 3 10 5 -3 11 0 14 7 3 7 -4 12 -18 12 -18 0 -21 -3 -14 -16z"/>
<path d="M4694 4614 c-17 -18 -19 -24 -8 -28 16 -6 44 2 44 13 0 12 33 10 50
-3 13 -10 13 -9 0 9 -8 11 -15 21 -16 23 -1 2 -12 4 -25 6 -15 2 -32 -5 -45
-20z m22 -12 c-18 -16 -18 -16 -6 6 6 13 14 21 18 18 3 -4 -2 -14 -12 -24z"/>
<path d="M4620 4615 c-7 -8 -8 -15 -2 -15 5 0 15 7 22 15 7 8 8 15 2 15 -5 0
-15 -7 -22 -15z"/>
<path d="M4907 4619 c7 -7 15 -10 18 -7 3 3 -2 9 -12 12 -14 6 -15 5 -6 -5z"/>
<path d="M5082 4544 c-13 -28 16 -59 36 -38 13 14 46 8 37 -6 -3 -5 5 -16 17
-24 12 -9 18 -16 13 -16 -10 -1 24 -30 35 -30 3 0 6 9 7 19 1 17 -16 32 -39
35 -3 1 -10 5 -15 10 -5 5 -3 6 5 2 7 -4 12 -2 12 5 0 7 8 5 20 -6 15 -13 19
-14 15 -4 -3 8 -15 20 -26 27 -12 8 -18 9 -14 3 3 -6 -1 -11 -10 -11 -12 0
-13 4 -6 18 8 14 6 18 -10 19 -10 1 -19 -3 -19 -8 0 -6 6 -7 13 -3 6 4 8 3 4
-1 -13 -15 -38 -14 -44 2 -3 8 0 19 8 24 10 6 8 8 -8 6 -12 0 -26 -11 -31 -23z
m9 -17 c-10 -9 -11 -8 -5 6 3 10 9 15 12 12 3 -3 0 -11 -7 -18z m119 -62 c10
-12 10 -15 -2 -15 -8 0 -15 7 -15 15 0 8 1 15 2 15 2 0 8 -7 15 -15z"/>
<path d="M4945 4550 c-3 -6 1 -7 9 -4 18 7 21 14 7 14 -6 0 -13 -4 -16 -10z"/>
<path d="M5196 4547 c3 -10 9 -15 12 -12 3 3 0 11 -7 18 -10 9 -11 8 -5 -6z"/>
<path d="M2326 4538 c3 -5 10 -6 15 -3 13 9 11 12 -6 12 -8 0 -12 -4 -9 -9z"/>
<path d="M2472 4491 c-11 -7 -11 -9 0 -14 9 -3 15 1 15 9 0 8 -1 14 -1 14 -1
0 -7 -4 -14 -9z"/>
<path d="M2435 4470 c-10 -16 4 -30 22 -23 10 4 14 2 9 -5 -3 -6 -1 -14 5 -18
6 -3 15 -1 19 7 10 16 3 32 -11 24 -5 -4 -9 -2 -9 3 0 14 -28 23 -35 12z"/>
<path d="M5190 4419 c0 -5 -4 -8 -9 -5 -4 3 -7 -10 -5 -29 1 -19 -2 -38 -8
-41 -5 -3 0 -12 11 -21 19 -13 20 -16 6 -37 -19 -29 -7 -43 13 -14 14 20 16
20 28 3 7 -9 10 -23 7 -31 -3 -8 -3 -14 0 -14 14 0 13 31 -1 51 -18 26 -27 63
-13 55 5 -4 8 2 6 11 -1 10 -8 17 -14 15 -7 -1 -10 10 -7 33 3 19 0 35 -5 35
-5 0 -9 -5 -9 -11z m3 -34 c-3 -9 -8 -14 -10 -11 -3 3 -2 9 2 15 9 16 15 13 8
-4z m14 -40 c-13 -9 -14 -15 -4 -25 10 -12 9 -12 -5 -1 -20 15 -14 38 9 38 14
0 14 -1 0 -12z"/>
<path d="M5220 4391 c0 -6 4 -13 10 -16 6 -3 7 1 4 9 -7 18 -14 21 -14 7z"/>
<path d="M2470 4377 c0 -14 39 -41 47 -33 3 3 -2 8 -11 12 -9 3 -16 12 -16 20
0 8 -4 14 -10 14 -5 0 -10 -6 -10 -13z"/>
<path d="M2595 4331 c-3 -5 -2 -12 3 -15 5 -3 9 1 9 9 0 17 -3 19 -12 6z"/>
<path d="M2530 4266 c0 -2 16 -16 35 -30 l35 -27 -4 23 c-1 13 -10 23 -19 23
-8 0 -19 4 -23 8 -8 7 -24 10 -24 3z"/>
<path d="M2588 4190 c15 -12 18 -20 10 -23 -7 -2 2 -4 21 -3 64 3 43 32 -29
42 l-25 3 23 -19z m56 -19 c-2 -3 -12 3 -22 13 -16 17 -16 18 5 5 12 -7 20
-15 17 -18z"/>
<path d="M2670 4200 c0 -5 5 -10 11 -10 5 0 7 5 4 10 -3 6 -8 10 -11 10 -2 0
-4 -4 -4 -10z"/>
<path d="M5185 4141 c-3 -6 3 -15 14 -20 26 -14 27 -14 28 9 1 11 -3 20 -8 20
-6 0 -7 -4 -4 -10 3 -5 -1 -10 -10 -10 -9 0 -13 5 -10 10 3 6 4 10 1 10 -3 0
-7 -4 -11 -9z"/>
<path d="M2716 4119 c2 -4 -2 -10 -8 -12 -8 -4 -9 -6 -2 -6 6 -1 17 5 23 12 8
10 7 14 -4 14 -8 0 -12 -4 -9 -8z"/>
<path d="M5190 4099 c0 -5 -4 -8 -9 -5 -4 3 -7 -10 -5 -29 1 -19 -2 -38 -8
-41 -5 -3 0 -12 11 -21 19 -13 20 -16 6 -37 -19 -29 -7 -43 13 -14 14 20 16
20 28 3 7 -9 10 -23 7 -31 -3 -8 -3 -14 0 -14 14 0 13 31 -1 51 -18 26 -27 63
-13 55 5 -4 8 2 6 11 -1 10 -8 17 -14 15 -7 -1 -10 10 -7 33 3 19 0 35 -5 35
-5 0 -9 -5 -9 -11z m3 -34 c-3 -9 -8 -14 -10 -11 -3 3 -2 9 2 15 9 16 15 13 8
-4z m14 -40 c-13 -9 -14 -15 -4 -25 10 -12 9 -12 -5 -1 -20 15 -14 38 9 38 14
0 14 -1 0 -12z"/>
<path d="M5220 4071 c0 -6 4 -13 10 -16 6 -3 7 1 4 9 -7 18 -14 21 -14 7z"/>
<path d="M2710 4035 c-7 -8 -16 -13 -20 -10 -14 9 -22 -15 -11 -29 6 -7 9 -22
5 -32 -4 -14 -3 -15 4 -6 7 11 11 10 17 -5 5 -10 7 -23 6 -29 0 -6 6 -17 14
-24 13 -11 15 -10 12 6 -1 11 -6 25 -10 32 -5 6 -5 12 -1 12 4 0 -1 7 -12 15
-10 8 -15 15 -10 15 6 0 1 6 -10 14 -14 11 -15 14 -4 14 32 -2 50 2 50 12 0 5
-8 7 -17 4 -15 -5 -15 -3 1 10 11 9 15 16 9 16 -6 0 -16 -7 -23 -15z"/>
<path d="M2750 4000 c0 -5 5 -10 11 -10 5 0 7 5 4 10 -3 6 -8 10 -11 10 -2 0
-4 -4 -4 -10z"/>
<path d="M2795 3869 c-4 -6 -5 -12 -2 -15 2 -3 7 2 10 11 7 17 1 20 -8 4z"/>
<path d="M2736 3816 c6 -16 31 -17 31 -1 0 6 -8 12 -18 12 -11 1 -16 -3 -13
-11z"/>
<path d="M5185 3821 c-3 -6 3 -15 14 -20 26 -14 27 -14 28 9 1 11 -3 20 -8 20
-6 0 -7 -4 -4 -10 3 -5 -1 -10 -10 -10 -9 0 -13 5 -10 10 3 6 4 10 1 10 -3 0
-7 -4 -11 -9z"/>
<path d="M5190 3779 c0 -5 -4 -8 -9 -5 -4 3 -7 -10 -5 -29 1 -19 -2 -38 -8
-41 -5 -3 0 -12 11 -21 19 -13 20 -16 6 -37 -19 -29 -7 -43 13 -14 14 20 16
20 28 3 7 -9 10 -23 7 -31 -3 -8 -3 -14 0 -14 14 0 13 31 -1 51 -18 26 -27 63
-13 55 5 -4 8 2 6 11 -1 10 -8 17 -14 15 -7 -1 -10 10 -7 33 3 19 0 35 -5 35
-5 0 -9 -5 -9 -11z m3 -34 c-3 -9 -8 -14 -10 -11 -3 3 -2 9 2 15 9 16 15 13 8
-4z m14 -40 c-13 -9 -14 -15 -4 -25 10 -12 9 -12 -5 -1 -20 15 -14 38 9 38 14
0 14 -1 0 -12z"/>
<path d="M2817 3757 c-10 -6 -20 -24 -22 -38 -4 -20 1 -28 20 -37 25 -11 25
-13 9 -36 -16 -26 -10 -51 14 -51 6 0 12 -4 13 -10 0 -5 7 -17 15 -26 8 -9 11
-19 7 -22 -3 -4 -1 -7 7 -7 10 0 10 -3 -1 -17 -11 -13 -11 -17 -1 -21 9 -3 10
-8 2 -17 -12 -14 -3 -48 11 -39 15 9 31 -6 21 -19 -12 -15 -9 -65 5 -92 6 -11
8 -27 5 -35 -3 -8 8 -1 24 15 17 17 28 33 26 38 -2 4 2 7 7 7 6 0 11 5 11 12
0 9 -3 9 -12 0 -9 -9 -15 -9 -27 1 -12 10 -13 9 -6 -2 6 -10 4 -12 -5 -6 -9 5
-11 4 -6 -3 5 -8 1 -10 -10 -5 -15 5 -15 7 0 15 9 5 16 14 16 19 0 6 -5 7 -11
3 -8 -4 -8 -1 -2 12 5 11 9 26 8 34 0 8 4 18 10 22 6 5 3 13 -9 21 -11 8 -21
23 -22 33 -2 10 -8 20 -13 22 -6 2 -11 8 -11 13 0 6 9 5 23 -1 13 -7 8 0 -11
16 -25 20 -30 29 -20 35 10 6 10 11 1 20 -6 6 -9 19 -6 28 4 14 3 14 -6 1 -6
-8 -11 -12 -12 -7 -5 24 -5 33 0 42 12 21 8 31 -12 31 -11 -1 -22 6 -25 14 -5
13 -3 13 11 1 11 -9 17 -10 17 -2 0 6 -4 11 -10 11 -14 0 -12 27 3 33 6 3 7 6
1 6 -5 1 -18 -5 -27 -12z m-6 -30 c-10 -9 -11 -8 -5 6 3 10 9 15 12 12 3 -3 0
-11 -7 -18z m43 -49 c-5 -8 -44 13 -44 23 0 4 11 2 24 -4 13 -7 22 -15 20 -19z
m-7 -25 c-4 -3 2 -17 14 -29 27 -28 11 -38 -21 -13 -20 15 -21 18 -5 12 17 -6
18 -4 8 9 -11 13 -8 28 5 28 3 0 2 -3 -1 -7z m34 -90 c13 -16 12 -17 -3 -4
-17 13 -22 21 -14 21 2 0 10 -8 17 -17z m24 -63 c-3 -5 1 -14 8 -22 8 -7 14
-21 14 -31 0 -15 -2 -16 -17 -2 -9 8 -20 12 -25 8 -4 -5 -3 2 4 14 7 15 8 24
1 28 -6 4 -8 11 -4 16 3 5 10 7 15 3 5 -3 7 -9 4 -14z m55 -159 c0 -14 -29
-21 -36 -9 -4 6 -3 8 4 4 6 -3 13 -2 17 4 8 12 15 13 15 1z"/>
<path d="M5220 3751 c0 -6 4 -13 10 -16 6 -3 7 1 4 9 -7 18 -14 21 -14 7z"/>
<path d="M2895 3639 c-4 -6 -5 -12 -2 -15 2 -3 7 2 10 11 7 17 1 20 -8 4z"/>
<path d="M2900 3579 c0 -5 5 -7 10 -4 6 3 10 8 10 11 0 2 -4 4 -10 4 -5 0 -10
-5 -10 -11z"/>
<path d="M2930 3500 c0 -5 5 -10 11 -10 5 0 7 5 4 10 -3 6 -8 10 -11 10 -2 0
-4 -4 -4 -10z"/>
<path d="M5185 3501 c-3 -6 3 -15 14 -20 26 -14 27 -14 28 9 1 11 -3 20 -8 20
-6 0 -7 -4 -4 -10 3 -5 -1 -10 -10 -10 -9 0 -13 5 -10 10 3 6 4 10 1 10 -3 0
-7 -4 -11 -9z"/>
<path d="M5190 3459 c0 -5 -4 -8 -9 -5 -4 3 -7 -10 -5 -29 1 -19 -2 -38 -8
-41 -5 -3 0 -12 11 -21 19 -13 20 -16 6 -37 -19 -29 -7 -43 13 -14 14 20 16
20 28 3 7 -9 10 -23 7 -31 -3 -8 -3 -14 0 -14 14 0 13 31 -1 51 -18 26 -27 63
-13 55 5 -4 8 2 6 11 -1 10 -8 17 -14 15 -7 -1 -10 10 -7 33 3 19 0 35 -5 35
-5 0 -9 -5 -9 -11z m3 -34 c-3 -9 -8 -14 -10 -11 -3 3 -2 9 2 15 9 16 15 13 8
-4z m14 -40 c-13 -9 -14 -15 -4 -25 10 -12 9 -12 -5 -1 -20 15 -14 38 9 38 14
0 14 -1 0 -12z"/>
<path d="M5220 3431 c0 -6 4 -13 10 -16 6 -3 7 1 4 9 -7 18 -14 21 -14 7z"/>
<path d="M2946 3402 c-7 -12 12 -38 21 -29 4 5 1 12 -6 16 -11 7 -11 10 0 14
9 3 10 6 2 6 -6 1 -14 -3 -17 -7z"/>
<path d="M3030 3250 c-9 -6 -10 -10 -3 -10 6 0 15 5 18 10 8 12 4 12 -15 0z"/>
<path d="M5185 3181 c-3 -6 3 -15 14 -20 26 -14 27 -14 28 9 1 11 -3 20 -8 20
-6 0 -7 -4 -4 -10 3 -5 -1 -10 -10 -10 -9 0 -13 5 -10 10 3 6 4 10 1 10 -3 0
-7 -4 -11 -9z"/>
<path d="M2990 3161 c-13 -26 -13 -31 4 -25 8 3 17 1 20 -5 4 -6 14 -8 24 -5
12 4 11 2 -3 -7 -22 -14 -35 -29 -35 -43 0 -6 7 -1 15 10 8 10 15 15 15 9 0
-5 5 -3 11 5 9 13 10 13 6 0 -2 -8 -10 -14 -16 -12 -16 3 -14 -13 4 -28 10 -8
12 -17 5 -30 -7 -13 -4 -20 16 -29 14 -6 24 -17 21 -24 -6 -15 12 -41 31 -44
6 -2 12 2 12 7 0 6 -8 10 -17 10 -12 0 -14 3 -7 10 13 13 46 2 37 -13 -4 -6
-1 -7 7 -2 10 6 7 12 -11 26 -13 10 -30 19 -37 19 -7 0 -11 4 -7 10 4 6 15 6
30 0 14 -5 25 -7 25 -5 0 3 -11 10 -25 15 -13 5 -23 15 -21 22 1 7 1 10 -1 5
-3 -4 -9 -4 -14 -1 -6 3 -5 11 2 20 9 11 9 14 0 14 -7 0 -9 5 -5 13 6 9 4 9
-8 -1 -14 -11 -16 -8 -13 26 2 36 0 39 -21 36 -13 -1 -22 2 -18 7 3 5 9 7 13
5 4 -3 13 0 21 5 13 9 13 10 0 6 -8 -2 -23 0 -32 4 -13 7 -20 4 -28 -10z m80
-103 c0 -4 -4 -8 -9 -8 -6 0 -12 4 -15 8 -3 5 1 9 9 9 8 0 15 -4 15 -9z m15
-49 c-6 -9 -35 -1 -35 10 0 4 3 11 7 14 8 9 34 -13 28 -24z"/>
<path d="M5190 3139 c0 -5 -4 -8 -9 -5 -4 3 -7 -10 -5 -29 1 -19 -2 -38 -8
-41 -5 -3 0 -12 11 -21 19 -13 20 -16 6 -37 -19 -29 -7 -43 13 -14 14 20 16
20 28 3 7 -9 10 -23 7 -31 -3 -8 -3 -14 0 -14 14 0 13 31 -1 51 -18 26 -27 63
-13 55 5 -4 8 2 6 11 -1 10 -8 17 -14 15 -7 -1 -10 10 -7 33 3 19 0 35 -5 35
-5 0 -9 -5 -9 -11z m3 -34 c-3 -9 -8 -14 -10 -11 -3 3 -2 9 2 15 9 16 15 13 8
-4z m14 -40 c-13 -9 -14 -15 -4 -25 10 -12 9 -12 -5 -1 -20 15 -14 38 9 38 14
0 14 -1 0 -12z"/>
<path d="M3070 3121 c0 -6 4 -13 10 -16 6 -3 7 1 4 9 -7 18 -14 21 -14 7z"/>
<path d="M5220 3111 c0 -6 4 -13 10 -16 6 -3 7 1 4 9 -7 18 -14 21 -14 7z"/>
<path d="M3080 2915 c7 -8 16 -13 20 -10 4 3 13 -1 19 -9 9 -11 8 -15 -5 -20
-15 -6 -15 -8 1 -26 10 -11 21 -17 26 -14 4 2 6 -5 4 -16 -3 -13 0 -18 7 -14
7 4 8 3 4 -4 -10 -17 -29 -15 -23 2 4 11 1 13 -11 10 -13 -5 -14 -4 -3 4 8 6
9 12 3 16 -19 11 -24 -15 -7 -34 9 -10 17 -28 18 -40 1 -13 11 -26 25 -31 21
-8 23 -11 11 -27 -12 -15 -12 -16 2 -5 9 7 20 9 24 5 5 -4 5 -2 2 4 -4 7 0 17
8 24 8 7 15 17 15 23 0 6 -7 2 -16 -9 -15 -18 -15 -18 -11 4 5 19 3 21 -9 11
-7 -6 -11 -15 -8 -20 3 -5 -2 -6 -10 -3 -13 5 -12 9 4 27 11 11 20 25 20 30 0
5 -8 -1 -18 -14 -15 -17 -21 -19 -27 -9 -5 9 -4 11 3 6 7 -4 13 -1 14 6 0 7 2
18 2 23 1 6 5 16 10 23 4 7 4 11 -1 10 -4 -1 -21 5 -38 15 -21 12 -24 16 -10
14 11 -1 27 -7 35 -11 8 -5 4 3 -10 19 l-25 27 25 -6 25 -7 -25 15 c-14 9 -19
15 -11 16 8 0 11 3 8 6 -4 4 -13 1 -22 -6 -8 -7 -15 -8 -15 -3 0 5 -9 9 -21
10 -17 2 -18 -1 -9 -12z"/>
<path d="M5185 2861 c-3 -6 3 -15 14 -20 26 -14 27 -14 28 9 1 11 -3 20 -8 20
-6 0 -7 -4 -4 -10 3 -5 -1 -10 -10 -10 -9 0 -13 5 -10 10 3 6 4 10 1 10 -3 0
-7 -4 -11 -9z"/>
<path d="M3190 2819 c0 -5 5 -7 10 -4 6 3 10 8 10 11 0 2 -4 4 -10 4 -5 0 -10
-5 -10 -11z"/>
<path d="M5190 2819 c0 -5 -4 -8 -9 -5 -4 3 -7 -10 -5 -29 1 -19 -2 -38 -8
-41 -5 -3 0 -12 11 -21 19 -13 20 -16 6 -37 -19 -29 -7 -43 13 -14 14 20 16
20 28 3 7 -9 10 -23 7 -31 -3 -8 -3 -14 0 -14 14 0 13 31 -1 51 -18 26 -27 63
-13 55 5 -4 8 2 6 11 -1 10 -8 17 -14 15 -7 -1 -10 10 -7 33 3 19 0 35 -5 35
-5 0 -9 -5 -9 -11z m3 -34 c-3 -9 -8 -14 -10 -11 -3 3 -2 9 2 15 9 16 15 13 8
-4z m14 -40 c-13 -9 -14 -15 -4 -25 10 -12 9 -12 -5 -1 -20 15 -14 38 9 38 14
0 14 -1 0 -12z"/>
<path d="M5220 2791 c0 -6 4 -13 10 -16 6 -3 7 1 4 9 -7 18 -14 21 -14 7z"/>
<path d="M3199 2632 c8 -6 10 -15 5 -23 -6 -11 -5 -12 8 -2 8 7 18 10 21 6 4
-3 7 -1 7 5 0 7 -4 12 -9 12 -5 0 -18 3 -28 6 -14 4 -15 4 -4 -4z"/>
<path d="M3225 2540 c10 -11 20 -20 22 -20 2 0 -1 9 -7 20 -6 11 -16 20 -22
20 -6 0 -3 -9 7 -20z"/>
<path d="M5185 2541 c-3 -6 3 -15 14 -20 26 -14 27 -14 28 9 1 11 -3 20 -8 20
-6 0 -7 -4 -4 -10 3 -5 -1 -10 -10 -10 -9 0 -13 5 -10 10 3 6 4 10 1 10 -3 0
-7 -4 -11 -9z"/>
<path d="M5190 2499 c0 -5 -4 -8 -9 -5 -4 3 -7 -10 -5 -29 1 -19 -2 -38 -8
-41 -5 -3 0 -12 11 -21 19 -13 20 -16 6 -37 -19 -29 -7 -43 13 -14 14 20 16
20 28 3 7 -9 10 -23 7 -31 -3 -8 -3 -14 0 -14 14 0 13 31 -1 51 -18 26 -27 63
-13 55 5 -4 8 2 6 11 -1 10 -8 17 -14 15 -7 -1 -10 10 -7 33 3 19 0 35 -5 35
-5 0 -9 -5 -9 -11z m3 -34 c-3 -9 -8 -14 -10 -11 -3 3 -2 9 2 15 9 16 15 13 8
-4z m14 -40 c-13 -9 -14 -15 -4 -25 10 -12 9 -12 -5 -1 -20 15 -14 38 9 38 14
0 14 -1 0 -12z"/>
<path d="M5220 2471 c0 -6 4 -13 10 -16 6 -3 7 1 4 9 -7 18 -14 21 -14 7z"/>
<path d="M3318 2273 c6 -2 9 -10 6 -15 -4 -7 -2 -8 5 -4 13 9 5 26 -12 25 -9
0 -8 -2 1 -6z"/>
<path d="M5185 2221 c-3 -6 3 -15 14 -20 26 -14 27 -14 28 9 1 11 -3 20 -8 20
-6 0 -7 -4 -4 -10 3 -5 -1 -10 -10 -10 -9 0 -13 5 -10 10 3 6 4 10 1 10 -3 0
-7 -4 -11 -9z"/>
<path d="M5190 2179 c0 -5 -4 -8 -9 -5 -4 3 -7 -10 -5 -29 1 -19 -2 -38 -8
-41 -5 -3 0 -12 11 -21 19 -13 20 -16 6 -37 -19 -29 -7 -43 13 -14 14 20 16
20 28 3 7 -9 10 -23 7 -31 -3 -8 -3 -14 0 -14 14 0 13 31 -1 51 -18 26 -27 63
-13 55 5 -4 8 2 6 11 -1 10 -8 17 -14 15 -7 -1 -10 10 -7 33 3 19 0 35 -5 35
-5 0 -9 -5 -9 -11z m3 -34 c-3 -9 -8 -14 -10 -11 -3 3 -2 9 2 15 9 16 15 13 8
-4z m14 -40 c-13 -9 -14 -15 -4 -25 10 -12 9 -12 -5 -1 -20 15 -14 38 9 38 14
0 14 -1 0 -12z"/>
<path d="M5220 2151 c0 -6 4 -13 10 -16 6 -3 7 1 4 9 -7 18 -14 21 -14 7z"/>
<path d="M1850 2020 c0 -5 5 -10 11 -10 5 0 7 5 4 10 -3 6 -8 10 -11 10 -2 0
-4 -4 -4 -10z"/>
<path d="M1814 1958 c10 -17 12 -29 6 -33 -6 -4 -7 -12 -3 -18 14 -23 12 -39
-4 -33 -13 5 -14 4 -3 -9 7 -8 20 -15 29 -15 14 0 14 2 1 10 -13 8 -13 10 2
10 9 0 20 5 24 11 4 8 -1 9 -17 4 -22 -7 -23 -6 -10 9 13 15 13 19 0 27 -12 7
-12 9 1 9 13 0 13 1 0 10 -12 8 -12 10 5 10 17 0 17 2 5 10 -10 6 -16 6 -19
-1 -1 -5 -10 -2 -18 8 -12 14 -12 12 1 -9z"/>
<path d="M5185 1901 c-3 -6 3 -15 14 -20 26 -14 27 -14 28 9 1 11 -3 20 -8 20
-6 0 -7 -4 -4 -10 3 -5 -1 -10 -10 -10 -9 0 -13 5 -10 10 3 6 4 10 1 10 -3 0
-7 -4 -11 -9z"/>
<path d="M5190 1859 c0 -5 -4 -8 -9 -5 -4 3 -7 -10 -5 -29 1 -19 -2 -38 -8
-41 -5 -3 0 -12 11 -21 19 -13 20 -16 6 -37 -19 -29 -7 -43 13 -14 14 20 16
20 28 3 7 -9 10 -23 7 -31 -3 -8 -3 -14 0 -14 14 0 13 31 -1 51 -18 26 -27 63
-13 55 5 -4 8 2 6 11 -1 10 -8 17 -14 15 -7 -1 -10 10 -7 33 3 19 0 35 -5 35
-5 0 -9 -5 -9 -11z m3 -34 c-3 -9 -8 -14 -10 -11 -3 3 -2 9 2 15 9 16 15 13 8
-4z m14 -40 c-13 -9 -14 -15 -4 -25 10 -12 9 -12 -5 -1 -20 15 -14 38 9 38 14
0 14 -1 0 -12z"/>
<path d="M5220 1831 c0 -6 4 -13 10 -16 6 -3 7 1 4 9 -7 18 -14 21 -14 7z"/>
<path d="M1805 1771 c-3 -5 -2 -12 3 -15 5 -3 9 1 9 9 0 17 -3 19 -12 6z"/>
<path d="M1820 1590 c-8 -26 -7 -41 2 -32 6 6 8 16 5 24 -3 7 -6 11 -7 8z"/>
<path d="M5185 1581 c-3 -6 3 -15 14 -20 26 -14 27 -14 28 9 1 11 -3 20 -8 20
-6 0 -7 -4 -4 -10 3 -5 -1 -10 -10 -10 -9 0 -13 5 -10 10 3 6 4 10 1 10 -3 0
-7 -4 -11 -9z"/>
<path d="M1866 1538 c3 -5 10 -6 15 -3 13 9 11 12 -6 12 -8 0 -12 -4 -9 -9z"/>
<path d="M5190 1539 c0 -5 -4 -8 -9 -5 -4 3 -7 -10 -5 -29 1 -19 -2 -38 -8
-41 -5 -3 0 -12 11 -21 19 -13 20 -16 6 -37 -19 -29 -7 -43 13 -14 14 20 16
20 28 3 7 -9 10 -23 7 -31 -3 -8 -3 -14 0 -14 14 0 13 31 -1 51 -18 26 -27 63
-13 55 5 -4 8 2 6 11 -1 10 -8 17 -14 15 -7 -1 -10 10 -7 33 3 19 0 35 -5 35
-5 0 -9 -5 -9 -11z m3 -34 c-3 -9 -8 -14 -10 -11 -3 3 -2 9 2 15 9 16 15 13 8
-4z m14 -40 c-13 -9 -14 -15 -4 -25 10 -12 9 -12 -5 -1 -20 15 -14 38 9 38 14
0 14 -1 0 -12z"/>
<path d="M5220 1511 c0 -6 4 -13 10 -16 6 -3 7 1 4 9 -7 18 -14 21 -14 7z"/>
<path d="M5185 1261 c-3 -6 3 -15 14 -20 26 -14 27 -14 28 9 1 11 -3 20 -8 20
-6 0 -7 -4 -4 -10 3 -5 -1 -10 -10 -10 -9 0 -13 5 -10 10 3 6 4 10 1 10 -3 0
-7 -4 -11 -9z"/>
<path d="M5190 1219 c0 -5 -4 -8 -9 -5 -4 3 -7 -10 -5 -29 1 -19 -2 -38 -8
-41 -5 -3 0 -12 11 -21 19 -13 20 -16 6 -37 -19 -29 -7 -43 13 -14 14 20 16
20 28 3 7 -9 10 -23 7 -31 -3 -8 -3 -14 0 -14 14 0 13 31 -1 51 -18 26 -27 63
-13 55 5 -4 8 2 6 11 -1 10 -8 17 -14 15 -7 -1 -10 10 -7 33 3 19 0 35 -5 35
-5 0 -9 -5 -9 -11z m3 -34 c-3 -9 -8 -14 -10 -11 -3 3 -2 9 2 15 9 16 15 13 8
-4z m14 -40 c-13 -9 -14 -15 -4 -25 10 -12 9 -12 -5 -1 -20 15 -14 38 9 38 14
0 14 -1 0 -12z"/>
<path d="M1855 1200 c3 -5 8 -10 11 -10 2 0 4 5 4 10 0 6 -5 10 -11 10 -5 0
-7 -4 -4 -10z"/>
<path d="M5220 1191 c0 -6 4 -13 10 -16 6 -3 7 1 4 9 -7 18 -14 21 -14 7z"/>
<path d="M5185 941 c-3 -6 3 -15 14 -20 26 -14 27 -14 28 9 1 11 -3 20 -8 20
-6 0 -7 -4 -4 -10 3 -5 -1 -10 -10 -10 -9 0 -13 5 -10 10 3 6 4 10 1 10 -3 0
-7 -4 -11 -9z"/>
<path d="M1825 909 c-4 -6 -4 -13 -1 -16 3 -4 6 -1 6 6 0 7 5 9 10 6 6 -3 10
-1 10 4 0 14 -17 14 -25 0z"/>
<path d="M5190 899 c0 -5 -4 -8 -9 -5 -4 3 -7 -10 -5 -29 1 -19 -2 -38 -8 -41
-5 -3 0 -12 11 -21 19 -13 20 -16 6 -37 -19 -29 -7 -43 13 -14 14 20 16 20 28
3 7 -9 10 -23 7 -31 -3 -8 -3 -14 0 -14 14 0 13 31 -1 51 -18 26 -27 63 -13
55 5 -4 8 2 6 11 -1 10 -8 17 -14 15 -7 -1 -10 10 -7 33 3 19 0 35 -5 35 -5 0
-9 -5 -9 -11z m3 -34 c-3 -9 -8 -14 -10 -11 -3 3 -2 9 2 15 9 16 15 13 8 -4z
m14 -40 c-13 -9 -14 -15 -4 -25 10 -12 9 -12 -5 -1 -20 15 -14 38 9 38 14 0
14 -1 0 -12z"/>
<path d="M5220 871 c0 -6 4 -13 10 -16 6 -3 7 1 4 9 -7 18 -14 21 -14 7z"/>
<path d="M1829 813 c-1 -5 -1 -11 0 -15 0 -5 -3 -8 -8 -8 -5 0 -12 -7 -15 -16
-3 -8 -2 -13 3 -9 5 3 11 0 13 -7 3 -8 9 -8 24 0 10 6 14 12 7 12 -7 0 -10 10
-7 25 2 14 0 25 -6 25 -5 0 -11 -3 -11 -7z m8 -38 c0 -8 -4 -12 -9 -9 -5 3 -6
10 -3 15 9 13 12 11 12 -6z"/>
<path d="M1834 735 c-10 -8 -14 -15 -9 -15 6 0 4 -4 -4 -9 -11 -7 -12 -13 -3
-23 9 -11 8 -19 -3 -34 -9 -13 -10 -25 -4 -35 7 -12 9 -12 9 1 0 12 2 12 9 1
6 -9 11 -10 15 -2 4 6 2 11 -4 11 -6 0 -8 5 -5 10 5 8 12 7 23 -2 15 -12 16
-11 3 5 -7 9 -10 17 -7 17 4 0 2 10 -5 22 -9 17 -9 20 3 15 8 -3 15 1 15 8 0
7 -6 11 -13 8 -6 -2 -15 0 -19 6 -3 6 1 11 9 11 9 0 16 5 16 10 0 13 -3 13
-26 -5z m3 -40 c0 -8 -4 -12 -9 -9 -5 3 -6 10 -3 15 9 13 12 11 12 -6z m13
-28 c0 -2 -10 -12 -21 -23 -22 -19 -22 -19 -8 4 12 19 29 30 29 19z"/>
<path d="M5185 621 c-3 -6 3 -15 14 -20 26 -14 27 -14 28 9 1 11 -3 20 -8 20
-6 0 -7 -4 -4 -10 3 -5 -1 -10 -10 -10 -9 0 -13 5 -10 10 3 6 4 10 1 10 -3 0
-7 -4 -11 -9z"/>
<path d="M5190 579 c0 -5 -4 -8 -8 -5 -4 2 -7 -14 -7 -37 1 -31 5 -43 18 -45
9 -2 17 -8 17 -13 0 -6 -4 -8 -9 -4 -5 3 -13 0 -18 -7 -12 -21 -11 -57 3 -62
9 -3 11 0 7 11 -4 11 -2 14 5 9 7 -4 12 -2 12 4 0 7 -6 10 -13 7 -8 -3 -14 1
-14 8 0 7 6 11 13 8 7 -2 16 6 20 19 12 35 13 49 4 43 -11 -7 -18 16 -15 48 2
15 -1 27 -6 27 -5 0 -9 -5 -9 -11z m6 -39 c0 -12 -4 -16 -9 -11 -5 5 -6 14 -3
20 10 15 12 14 12 -9z m19 -40 c3 -6 -1 -7 -9 -4 -18 7 -21 14 -7 14 6 0 13
-4 16 -10z"/>
<path d="M5221 544 c0 -11 3 -14 6 -6 3 7 2 16 -1 19 -3 4 -6 -2 -5 -13z"/>
<path d="M1850 538 c0 -4 4 -8 9 -8 6 0 12 4 15 8 3 5 -1 9 -9 9 -8 0 -15 -4
-15 -9z"/>
<path d="M5230 450 c-9 -6 -10 -10 -3 -10 6 0 15 5 18 10 8 12 4 12 -15 0z"/>
<path d="M5233 415 c0 -8 4 -12 9 -9 5 3 6 10 3 15 -9 13 -12 11 -12 -6z"/>
</g>
</svg>
